<svg width="24" height="24" viewBox="0 0 24 24" fill="none" xmlns="http://www.w3.org/2000/svg">
<path d="M18.6002 16.1998V10.1498C18.6002 6.77281 16.8072 3.94581 13.6502 3.19781V2.44981C13.6502 1.53681 12.9132 0.799809 12.0002 0.799809C11.0872 0.799809 10.3502 1.53681 10.3502 2.44981V3.19781C7.2042 3.94581 5.4002 6.76181 5.4002 10.1498V16.1998L3.2002 18.3998V19.4998H20.8002V18.3998L18.6002 16.1998ZM16.4002 17.2998H7.6002V10.1498C7.6002 7.42181 9.2612 5.19981 12.0002 5.19981C14.7392 5.19981 16.4002 7.42181 16.4002 10.1498V17.2998Z" fill="black"/>
<path d="M15.3002 20.7998C15.3002 22.0148 13.8227 22.9998 12.0002 22.9998C10.1777 22.9998 8.7002 22.0148 8.7002 20.7998H15.3002Z" fill="black"/>
</svg>
