<svg width="32" height="32" viewBox="0 0 32 32" fill="none" xmlns="http://www.w3.org/2000/svg">
<circle cx="16" cy="16" r="15" fill="white" stroke="#FFBB55" stroke-width="2"/>
<path d="M20.5 13.3333H19.75V11.8095C19.75 9.70667 18.07 8 16 8C13.93 8 12.25 9.70667 12.25 11.8095V13.3333H11.5C10.675 13.3333 10 14.019 10 14.8571V22.4762C10 23.3143 10.675 24 11.5 24H20.5C21.325 24 22 23.3143 22 22.4762V14.8571C22 14.019 21.325 13.3333 20.5 13.3333ZM16 20.1905C15.175 20.1905 14.5 19.5048 14.5 18.6667C14.5 17.8286 15.175 17.1429 16 17.1429C16.825 17.1429 17.5 17.8286 17.5 18.6667C17.5 19.5048 16.825 20.1905 16 20.1905ZM13.75 13.3333V11.8095C13.75 10.5448 14.755 9.52381 16 9.52381C17.245 9.52381 18.25 10.5448 18.25 11.8095V13.3333H13.75Z" fill="#FFBB55"/>
</svg>
