<svg width="32" height="32" viewBox="0 0 32 32" fill="none" xmlns="http://www.w3.org/2000/svg">
<circle cx="16" cy="16" r="15" fill="white" stroke="#23C7C7" stroke-width="2"/>
<path fill-rule="evenodd" clip-rule="evenodd" d="M19.3962 16.8218C20.3926 17.4982 21.0908 18.4146 21.0908 19.6364V21.8182H23.9999V19.6364C23.9999 18.0509 21.4035 17.1128 19.3962 16.8218Z" fill="#23C7C7"/>
<path d="M13.8183 16C15.4249 16 16.7274 14.6976 16.7274 13.0909C16.7274 11.4843 15.4249 10.1818 13.8183 10.1818C12.2116 10.1818 10.9092 11.4843 10.9092 13.0909C10.9092 14.6976 12.2116 16 13.8183 16Z" fill="#23C7C7"/>
<path fill-rule="evenodd" clip-rule="evenodd" d="M18.1819 16C19.7891 16 21.091 14.6982 21.091 13.0909C21.091 11.4837 19.7891 10.1818 18.1819 10.1818C17.8401 10.1818 17.5201 10.2546 17.2146 10.3564C17.8182 11.1055 18.1819 12.0582 18.1819 13.0909C18.1819 14.1237 17.8182 15.0764 17.2146 15.8255C17.5201 15.9273 17.8401 16 18.1819 16Z" fill="#23C7C7"/>
<path fill-rule="evenodd" clip-rule="evenodd" d="M13.8182 16.7273C11.8764 16.7273 8 17.7018 8 19.6364V21.8182H19.6364V19.6364C19.6364 17.7018 15.76 16.7273 13.8182 16.7273Z" fill="#23C7C7"/>
</svg>