<svg width="16" height="16" viewBox="0 0 16 16" fill="none" xmlns="http://www.w3.org/2000/svg">
<path fill-rule="evenodd" clip-rule="evenodd" d="M8.72732 5.09093C8.72732 6.69758 7.42488 8.00002 5.81823 8.00002C4.21158 8.00002 2.90913 6.69758 2.90913 5.09093C2.90913 3.48428 4.21158 2.18184 5.81823 2.18184C7.42488 2.18184 8.72732 3.48428 8.72732 5.09093ZM13.0908 11.6364C13.0908 10.4146 12.3926 9.49821 11.3963 8.82184C13.4035 9.11275 15.9999 10.0509 15.9999 11.6364V13.8182H13.0908V11.6364ZM10.1818 8.00002C11.7891 8.00002 13.0909 6.6982 13.0909 5.09093C13.0909 3.48365 11.7891 2.18184 10.1818 2.18184C9.84 2.18184 9.52 2.25456 9.21454 2.35638C9.81818 3.10547 10.1818 4.0582 10.1818 5.09093C10.1818 6.12366 9.81818 7.07638 9.21454 7.82548C9.52 7.92729 9.84 8.00002 10.1818 8.00002ZM0 11.6364C0 9.70183 3.87637 8.72728 5.81819 8.72728C7.76001 8.72728 11.6364 9.70183 11.6364 11.6364V13.8182H0V11.6364Z" fill="#23C7C7"/>
</svg>
