<svg width="102" height="80" viewBox="0 0 102 80" fill="none" xmlns="http://www.w3.org/2000/svg">
<mask id="mask0_1473_12346" style="mask-type:alpha" maskUnits="userSpaceOnUse" x="0" y="0" width="102" height="80">
<rect width="102" height="80" rx="20" fill="#F5F5F5"/>
</mask>
<g mask="url(#mask0_1473_12346)">
<rect width="102" height="80" fill="#F5F5F5"/>
<path fill-rule="evenodd" clip-rule="evenodd" d="M95.116 62.6425C90.9896 65.9925 85.7292 68 80 68C66.7452 68 56 57.2548 56 44C56 30.7452 66.7452 20 80 20C93.2548 20 104 30.7452 104 44C104 49.2356 102.324 54.0796 99.4781 58.0246C99.1121 57.8274 98.6968 57.7082 98.2534 57.6898C97.5006 57.6587 95.4768 56.8654 95.0907 53.7674C94.7981 51.4202 96.1609 49.6936 96.9097 49.2182C98.2309 48.3795 98.622 46.6286 97.7834 45.3074C96.9447 43.9862 95.1937 43.5951 93.8725 44.4337C91.7155 45.803 89.3191 49.0539 89.3828 53.2652C87.1138 54.3925 84.9758 55.2374 81.6294 55.2374C75.7238 55.2374 71.4564 53.7813 68.7566 51.0963C67.6469 49.9928 65.8529 49.9978 64.7494 51.1074C63.6459 52.217 63.6508 54.0111 64.7604 55.1146C68.9224 59.2537 74.9057 60.9045 81.6294 60.9045C85.652 60.9045 88.5002 59.9372 90.9006 58.8244C91.984 60.6662 93.52 61.9269 95.116 62.6425Z" fill="white"/>
<path d="M25.696 37.836C25.696 37.748 25.68 37.68 25.648 37.632C25.624 37.576 25.588 37.52 25.54 37.464C25.46 37.368 25.42 37.28 25.42 37.2C25.42 37.128 25.428 37.072 25.444 37.032C25.508 36.824 25.62 36.664 25.78 36.552C25.94 36.44 26.124 36.384 26.332 36.384C26.644 36.384 26.876 36.504 27.028 36.744L30.388 42.12V36.6H31.996V45H30.64L27.304 39.684V45H25.696V37.836ZM35.9432 45.132C35.3432 45.132 34.8152 45.008 34.3592 44.76C33.9112 44.504 33.5632 44.148 33.3152 43.692C33.0752 43.228 32.9552 42.696 32.9552 42.096C32.9552 41.496 33.0752 40.968 33.3152 40.512C33.5632 40.048 33.9112 39.692 34.3592 39.444C34.8152 39.188 35.3432 39.06 35.9432 39.06C36.5432 39.06 37.0672 39.188 37.5152 39.444C37.9712 39.692 38.3192 40.048 38.5592 40.512C38.8072 40.968 38.9312 41.496 38.9312 42.096C38.9312 42.696 38.8072 43.228 38.5592 43.692C38.3192 44.148 37.9712 44.504 37.5152 44.76C37.0672 45.008 36.5432 45.132 35.9432 45.132ZM35.9432 43.848C36.3992 43.848 36.7432 43.696 36.9752 43.392C37.2072 43.08 37.3232 42.648 37.3232 42.096C37.3232 41.544 37.2072 41.116 36.9752 40.812C36.7432 40.5 36.3992 40.344 35.9432 40.344C35.4872 40.344 35.1432 40.5 34.9112 40.812C34.6792 41.116 34.5632 41.544 34.5632 42.096C34.5632 42.648 34.6792 43.08 34.9112 43.392C35.1432 43.696 35.4872 43.848 35.9432 43.848ZM43.4692 36.6H45.0772V45H43.4692V36.6ZM53.8458 45.12C53.7098 44.88 53.6098 44.632 53.5458 44.376C53.4898 44.112 53.4618 43.816 53.4618 43.488V41.532C53.4618 41.124 53.3938 40.824 53.2578 40.632C53.1218 40.44 52.9178 40.344 52.6458 40.344C52.0138 40.344 51.6978 40.74 51.6978 41.532V45H50.1378V41.52C50.1378 41.096 50.0738 40.796 49.9458 40.62C49.8258 40.436 49.6298 40.344 49.3578 40.344C49.0138 40.344 48.7618 40.468 48.6018 40.716C48.4418 40.956 48.3618 41.32 48.3618 41.808V45H46.7778V40.812C46.7778 40.572 46.7578 40.364 46.7178 40.188C46.6858 40.012 46.6178 39.816 46.5138 39.6L47.8338 39.06C47.9058 39.188 47.9698 39.34 48.0258 39.516C48.0898 39.692 48.1258 39.844 48.1338 39.972C48.3018 39.676 48.5258 39.452 48.8058 39.3C49.0858 39.14 49.3858 39.06 49.7058 39.06C50.3378 39.06 50.8058 39.356 51.1098 39.948C51.3658 39.636 51.6418 39.412 51.9378 39.276C52.2338 39.132 52.5858 39.06 52.9938 39.06C53.6498 39.06 54.1538 39.252 54.5058 39.636C54.8658 40.02 55.0458 40.524 55.0458 41.148V43.452C55.0458 43.892 55.1258 44.272 55.2858 44.592L53.8458 45.12ZM58.7151 45.12C58.2191 45.12 57.7751 45.004 57.3831 44.772C56.9911 44.54 56.6831 44.204 56.4591 43.764C56.2351 43.324 56.1231 42.8 56.1231 42.192C56.1231 41.544 56.2351 40.984 56.4591 40.512C56.6911 40.04 57.0111 39.68 57.4191 39.432C57.8351 39.184 58.3191 39.06 58.8711 39.06C59.5191 39.06 60.0591 39.304 60.4911 39.792V39.18H62.0151V43.368C62.0151 43.648 62.0391 43.88 62.0871 44.064C62.1351 44.248 62.2111 44.432 62.3151 44.616L61.0311 45.12C60.7911 44.856 60.6551 44.556 60.6231 44.22H60.5991C60.3751 44.508 60.0991 44.732 59.7711 44.892C59.4511 45.044 59.0991 45.12 58.7151 45.12ZM59.0391 43.86C59.5031 43.86 59.8551 43.712 60.0951 43.416C60.3351 43.112 60.4551 42.708 60.4551 42.204V41.988C60.4551 41.524 60.3351 41.132 60.0951 40.812C59.8631 40.484 59.5271 40.32 59.0871 40.32C58.6391 40.32 58.2951 40.48 58.0551 40.8C57.8231 41.12 57.7071 41.584 57.7071 42.192C57.7071 42.736 57.8191 43.152 58.0431 43.44C58.2751 43.72 58.6071 43.86 59.0391 43.86ZM65.8904 47.616C65.1704 47.616 64.4664 47.44 63.7784 47.088L64.2464 45.948C64.7344 46.204 65.2824 46.332 65.8904 46.332C66.4904 46.332 66.9104 46.184 67.1504 45.888C67.3904 45.592 67.5104 45.172 67.5104 44.628V44.304C67.3104 44.52 67.0704 44.692 66.7904 44.82C66.5104 44.94 66.2024 45 65.8664 45C65.0504 45 64.3944 44.744 63.8984 44.232C63.4024 43.712 63.1544 42.976 63.1544 42.024C63.1544 41.392 63.2664 40.852 63.4904 40.404C63.7144 39.956 64.0224 39.616 64.4144 39.384C64.8064 39.152 65.2584 39.036 65.7704 39.036C66.5384 39.036 67.1824 39.336 67.7024 39.936C67.7424 39.584 67.8784 39.28 68.1104 39.024L69.3944 39.528C69.2904 39.712 69.2144 39.896 69.1664 40.08C69.1184 40.264 69.0944 40.5 69.0944 40.788V44.484C69.0944 45.508 68.8184 46.284 68.2664 46.812C67.7224 47.348 66.9304 47.616 65.8904 47.616ZM66.1424 43.74C66.5904 43.74 66.9344 43.58 67.1744 43.26C67.4144 42.932 67.5344 42.536 67.5344 42.072V41.952C67.5344 41.448 67.4104 41.048 67.1624 40.752C66.9224 40.448 66.5664 40.296 66.0944 40.296C65.6544 40.296 65.3184 40.444 65.0864 40.74C64.8544 41.028 64.7384 41.456 64.7384 42.024C64.7384 42.616 64.8544 43.052 65.0864 43.332C65.3264 43.604 65.6784 43.74 66.1424 43.74ZM73.3405 45.12C72.3805 45.12 71.6205 44.852 71.0605 44.316C70.5085 43.78 70.2325 43.052 70.2325 42.132C70.2325 41.532 70.3445 41 70.5685 40.536C70.7925 40.072 71.1245 39.712 71.5645 39.456C72.0045 39.192 72.5365 39.06 73.1605 39.06C73.7685 39.06 74.2965 39.188 74.7445 39.444C75.1925 39.692 75.5325 40.036 75.7645 40.476C75.9965 40.908 76.1125 41.392 76.1125 41.928C76.1125 42.192 76.0245 42.396 75.8485 42.54C75.6805 42.676 75.4445 42.744 75.1405 42.744H71.8045C71.8045 43.072 71.9445 43.336 72.2245 43.536C72.5125 43.736 72.8845 43.836 73.3405 43.836C73.7165 43.836 74.0325 43.784 74.2885 43.68C74.5525 43.568 74.7845 43.412 74.9845 43.212L75.7765 44.052C75.5125 44.388 75.1725 44.652 74.7565 44.844C74.3405 45.028 73.8685 45.12 73.3405 45.12ZM74.5405 41.508C74.5405 41.156 74.4085 40.872 74.1445 40.656C73.8885 40.432 73.5605 40.32 73.1605 40.32C72.7765 40.32 72.4525 40.432 72.1885 40.656C71.9325 40.872 71.8045 41.156 71.8045 41.508H74.5405Z" fill="#999999"/>
</g>
</svg>