<svg width="24" height="24" viewBox="0 0 24 24" fill="none" xmlns="http://www.w3.org/2000/svg">
<path d="M21.1701 6.53515H17.3133L15.6389 4.72109H10.1493V6.53515H14.8338L16.5081 8.34921H21.1701V20.1859H5.57467V12.0227H3.7448V20.1859C3.7448 21.1837 4.56824 22 5.57467 22H21.1701C22.1766 22 23 21.1837 23 20.1859V8.34921C23 7.35147 22.1766 6.53515 21.1701 6.53515ZM8.85066 13.7914C8.85066 16.2948 10.9001 18.3265 13.4253 18.3265C15.9505 18.3265 18 16.2948 18 13.7914C18 11.288 15.9505 9.25624 13.4253 9.25624C10.9001 9.25624 8.85066 11.288 8.85066 13.7914ZM13.4253 11.0703C14.935 11.0703 16.1701 12.2948 16.1701 13.7914C16.1701 15.288 14.935 16.5125 13.4253 16.5125C11.9157 16.5125 10.6805 15.288 10.6805 13.7914C10.6805 12.2948 11.9157 11.0703 13.4253 11.0703ZM5.57467 6.53515H8.31947V4.72109H5.57467V2H3.7448V4.72109H1V6.53515H3.7448V9.25624H5.57467V6.53515Z" fill="#323232"/>
</svg>
