<svg width="17" height="12" viewBox="0 0 17 12" fill="none" xmlns="http://www.w3.org/2000/svg">
<path d="M8.5 0.677734C4.86364 0.677734 1.75818 2.9584 0.5 6.17773C1.75818 9.39707 4.86364 11.6777 8.5 11.6777C12.1364 11.6777 15.2418 9.39707 16.5 6.17773C15.2418 2.9584 12.1364 0.677734 8.5 0.677734ZM8.5 9.8444C6.49273 9.8444 4.86364 8.20173 4.86364 6.17773C4.86364 4.15373 6.49273 2.51107 8.5 2.51107C10.5073 2.51107 12.1364 4.15373 12.1364 6.17773C12.1364 8.20173 10.5073 9.8444 8.5 9.8444ZM8.5 3.97773C7.29273 3.97773 6.31818 4.9604 6.31818 6.17773C6.31818 7.39507 7.29273 8.37773 8.5 8.37773C9.70727 8.37773 10.6818 7.39507 10.6818 6.17773C10.6818 4.9604 9.70727 3.97773 8.5 3.97773Z" fill="black"/>
</svg>