<svg width="14" height="15" viewBox="0 0 14 15" fill="none" xmlns="http://www.w3.org/2000/svg">
<path d="M12.3523 8.18542C12.3823 7.96667 12.3973 7.74062 12.3973 7.5C12.3973 7.26667 12.3823 7.03333 12.3448 6.81458L13.8666 5.6625C14.0015 5.56042 14.039 5.36354 13.9565 5.21771L12.5172 2.79688C12.4273 2.63646 12.2399 2.58542 12.075 2.63646L10.2834 3.33646C9.90854 3.05937 9.51124 2.82604 9.06896 2.65104L8.7991 0.798958C8.76911 0.623958 8.61919 0.5 8.43928 0.5H5.56072C5.38081 0.5 5.23838 0.623958 5.2084 0.798958L4.93853 2.65104C4.49625 2.82604 4.09145 3.06667 3.72414 3.33646L1.93253 2.63646C1.76762 2.57812 1.58021 2.63646 1.49026 2.79688L0.058471 5.21771C-0.031484 5.37083 -0.00149907 5.56042 0.148426 5.6625L1.67016 6.81458C1.63268 7.03333 1.6027 7.27396 1.6027 7.5C1.6027 7.72604 1.61769 7.96667 1.65517 8.18542L0.133433 9.3375C-0.00149906 9.43958 -0.0389802 9.63646 0.0434785 9.78229L1.48276 12.2031C1.57271 12.3635 1.76012 12.4146 1.92504 12.3635L3.71664 11.6635C4.09145 11.9406 4.48876 12.174 4.93103 12.349L5.2009 14.201C5.23838 14.376 5.38081 14.5 5.56072 14.5H8.43928C8.61919 14.5 8.76912 14.376 8.7916 14.201L9.06147 12.349C9.50375 12.174 9.90855 11.9406 10.2759 11.6635L12.0675 12.3635C12.2324 12.4219 12.4198 12.3635 12.5097 12.2031L13.949 9.78229C14.039 9.62187 14.0015 9.43958 13.8591 9.3375L12.3523 8.18542ZM7 10.125C5.51574 10.125 4.30135 8.94375 4.30135 7.5C4.30135 6.05625 5.51574 4.875 7 4.875C8.48426 4.875 9.69865 6.05625 9.69865 7.5C9.69865 8.94375 8.48426 10.125 7 10.125Z" fill="white"/>
</svg>
