<svg width="40" height="40" viewBox="0 0 40 40" fill="none" xmlns="http://www.w3.org/2000/svg">
<mask id="mask0_187_1238" style="mask-type:alpha" maskUnits="userSpaceOnUse" x="0" y="0" width="40" height="40">
<path d="M33.1723 35.05C29.6538 38.132 25.045 40 20 40C8.95431 40 0 31.0457 0 20C0 8.95431 8.95431 0 20 0C31.0457 0 40 8.95431 40 20C40 24.6791 38.3932 28.9828 35.7013 32.3896C35.5875 32.3587 35.4686 32.3399 35.3459 32.3349C34.3567 32.2939 32.3554 31.3603 31.9863 28.3997C31.7015 26.1153 33.0094 24.4052 33.8496 23.8718C34.5956 23.3982 34.8165 22.4096 34.3429 21.6635C33.8693 20.9175 32.8806 20.6966 32.1346 21.1702C30.4978 22.2092 28.6136 24.7724 28.7529 28.1005C26.5976 29.2009 24.6156 30.124 21.3576 30.124C16.3264 30.124 12.5398 28.8844 10.0935 26.4516C9.4669 25.8285 8.45384 25.8313 7.83073 26.4578C7.20762 27.0844 7.21042 28.0975 7.83698 28.7206C11.1089 31.9745 15.8645 33.324 21.3576 33.324C24.967 33.324 27.3775 32.3565 29.4878 31.3134C30.3211 33.2121 31.7316 34.4322 33.1723 35.05Z" fill="#23C7C7"/>
</mask>
<g mask="url(#mask0_187_1238)">
<path d="M33.1723 35.05C29.6538 38.132 25.045 40 20 40C8.9543 40 0 31.0457 0 20C0 8.9543 8.9543 0 20 0C31.0457 0 40 8.9543 40 20C40 24.6791 38.3932 28.9828 35.7013 32.3896C35.5875 32.3587 35.4686 32.3399 35.3459 32.3349C34.3567 32.2939 32.3554 31.3603 31.9863 28.3997C31.7015 26.1153 33.0094 24.4052 33.8496 23.8718C34.5956 23.3982 34.8165 22.4095 34.3429 21.6635C33.8693 20.9175 32.8806 20.6966 32.1346 21.1702C30.4978 22.2092 28.6136 24.7724 28.7529 28.1005C26.5976 29.2009 24.6156 30.124 21.3576 30.124C16.3264 30.124 12.5398 28.8844 10.0935 26.4516C9.4669 25.8285 8.45384 25.8313 7.83073 26.4578C7.20762 27.0844 7.21042 28.0975 7.83698 28.7206C11.1089 31.9745 15.8645 33.324 21.3576 33.324C24.967 33.324 27.3775 32.3565 29.4878 31.3134C30.3211 33.2121 31.7316 34.4322 33.1723 35.05Z" fill="#23C7C7"/>
</g>
<g clip-path="url(#clip0_187_1238)">
<path d="M20.9688 10.4004H6.3999C6.3999 14.8187 9.66165 18.4004 13.6832 18.4004C16.3807 18.4004 18.7433 16.7844 19.9999 14.3844C21.2565 16.7844 23.6146 18.4004 26.3166 18.4004C30.3381 18.4004 33.5999 14.8187 33.5999 10.4004H20.9688Z" fill="white"/>
<path d="M10.5942 10.4004C10.5942 12.7981 12.7253 14.7432 15.3531 14.7432C17.9809 14.7432 20.112 12.7981 20.112 10.4004H10.5942Z" fill="#040000"/>
<path d="M22.958 10.4004C22.958 12.7981 25.089 14.7432 27.7169 14.7432C30.3447 14.7432 32.4758 12.7981 32.4758 10.4004H22.958Z" fill="#040000"/>
</g>
<defs>
<clipPath id="clip0_187_1238">
<rect width="27.2" height="8" fill="white" transform="translate(6.3999 10.4004)"/>
</clipPath>
</defs>
</svg>