<svg width="124" height="124" viewBox="0 0 124 124" fill="none" xmlns="http://www.w3.org/2000/svg">
<g clip-path="url(#clip0_22_11)">
<path d="M64.9918 30.2397H19.9998C19.9998 43.4946 30.0728 54.2397 42.4923 54.2397C50.8229 54.2397 58.1191 49.3917 61.9998 42.1917C65.8804 49.3917 73.1627 54.2397 81.5072 54.2397C93.9267 54.2397 104 43.4946 104 30.2397H64.9918Z" fill="white"/>
<path d="M36 30C36 36.6253 41.8214 42 49 42C56.1786 42 62 36.6253 62 30H36Z" fill="#040000"/>
<path d="M74 30C74 36.6253 79.8214 42 87 42C94.1786 42 100 36.6253 100 30H74Z" fill="#040000"/>
</g>
<defs>
<clipPath id="clip0_22_11">
<rect width="84" height="24" fill="white" transform="translate(20 30.2397)"/>
</clipPath>
</defs>
</svg>
