<svg width="1920" height="855" viewBox="0 0 1920 855" fill="none" xmlns="http://www.w3.org/2000/svg">
<mask id="mask0_181_140" style="mask-type:alpha" maskUnits="userSpaceOnUse" x="0" y="0" width="1920" height="855">
<rect width="1920" height="855" fill="#363B58"/>
</mask>
<g mask="url(#mask0_181_140)">
</g>
<g clip-path="url(#clip0_181_140)">
<path d="M1920 0H0V853H1920V0Z" fill="#F5F5F5"/>
<path d="M1489 869H2260V504.261C2250.07 494.856 2238.06 487.937 2224.94 484.069C2206.43 478.691 2186.62 480.573 2169.04 488.211C2151.22 495.891 2136.57 509.431 2127.53 526.583C2124.66 532.112 2122.31 537.921 2119.64 543.558C2117.71 547.765 2115.45 551.808 2112.88 555.649C2107.19 563.817 2098.95 569.87 2089.45 572.861C2080.89 575.637 2071.85 576.658 2062.89 575.862C2032.47 573.334 2004.54 552.045 1976.42 539.943C1973.71 538.771 1971.04 537.684 1968.26 536.716C1950.66 530.423 1930.07 527.895 1912.18 534.479C1911.61 534.683 1911.1 534.898 1910.49 535.124C1892.56 542.363 1882.08 558.381 1877.12 576.475C1872.01 595.225 1872.39 614.868 1867.97 633.726C1867.1 637.47 1866.05 641.169 1864.81 644.806C1862.65 651.383 1859.54 657.606 1855.56 663.276C1851.48 669.128 1845.9 673.785 1839.41 676.766C1821.51 684.748 1802.7 675.604 1786.58 667.719C1770.02 659.619 1752.67 651.045 1733.69 653.595C1715.39 656.037 1701.03 666.439 1689.29 680.004C1676.57 694.699 1666.98 713.083 1658.98 729.068C1650.45 746.108 1641.35 763.438 1628.31 777.476C1622.3 784.174 1615.13 789.734 1607.14 793.892C1597.2 798.873 1586.53 800.056 1575.52 800.142C1564.32 800.228 1553.13 800.142 1542.39 803.767C1534.21 806.601 1526.63 810.907 1520.01 816.472C1505.93 828.154 1496.15 844.678 1490.79 862.018C1490.17 864.342 1489.54 866.666 1489 869Z" fill="#7F5FFF"/>
<path d="M1035.57 46.602C1028.23 60.4111 1017.89 72.9078 1004.8 81.5946C992.045 90.0197 977.114 94.5475 961.83 94.6247C946.861 94.6247 932.247 89.9003 920.758 80.2315C908.812 70.1393 900.607 55.8646 887.239 47.4064C873.421 38.6689 856.691 39.6256 841.95 45.476C826.185 51.7328 813.545 62.9342 802.428 75.4732C781.177 99.4253 762.711 129.007 729.86 137.72C716.661 141.216 701.92 141.174 689.695 134.333C678.417 128.034 671.872 116.807 667.741 104.937C659.909 82.4497 658.664 47.4995 629.505 42.174C612.377 39.0414 594.792 47.4149 578.663 52.0461C562.239 56.9007 544.861 57.5643 528.115 53.9764C511.369 50.3885 495.788 42.6633 482.795 31.5061C473.85 23.8773 466.4 14.653 460.824 4.30291C451.643 -12.9725 447.52 -32.4871 448.928 -52H1050.14C1053.18 -18.4638 1051.65 16.3001 1035.57 46.602Z" fill="#FF7337"/>
<path d="M1772.46 86.4694C1778.92 92.6416 1764.46 123.316 1772.7 126.542C1781.16 129.869 1791.57 141.993 1799.21 147.107C1806.5 151.992 1789.19 177.485 1791.5 185.935C1796.35 203.622 1833.71 168.155 1826.22 184.132C1817.5 202.648 1806.31 221.046 1805.05 241.967C1804.58 249.561 1805.6 257.173 1808.04 264.378C1816.44 289.27 1840.66 307.905 1865.7 315.347L1867.46 315.847C1886.93 321.215 1907.83 319.953 1927.45 315.847C1928.3 315.669 1929.19 315.483 1930.05 315.288V0H1762.58C1760.44 4.81141 1758.63 9.76825 1757.19 14.8335C1752.51 31.2503 1752.56 49.4534 1758.8 65.4722C1761.77 73.3841 1766.43 80.5509 1772.46 86.4694Z" fill="#23C7C7"/>
<path d="M-2 532V1024H810.426C811.272 1021.78 812.028 1019.53 812.692 1017.23C817.774 999.503 816.983 980.606 810.438 963.368C803.893 946.13 791.946 931.478 776.385 921.605C758.942 910.523 739.231 908.792 719.229 906.222C708.386 904.828 697.379 902.795 687.593 897.756C679.233 893.34 671.839 887.298 665.843 879.985C638.976 847.962 637.993 804.082 624.947 766.116C618.574 747.48 608.96 730.065 593.592 717.352C580.309 706.362 563.33 699.071 545.841 701.395C525.475 704.129 510.827 719.958 491.936 726.438C473.263 732.817 453.052 729.4 435.581 721.043C397.18 702.689 376.076 665.617 352.879 631.898C341.444 615.258 329.099 598.608 313.267 585.868C309.456 582.797 305.477 579.94 301.35 577.31C290.162 570.037 277.711 564.928 264.642 562.246C247.754 558.984 230.046 560.943 215.234 570.066C201.578 578.504 191.417 591.39 181.011 603.383C170.887 615.057 159.598 627.497 144.13 631.634C123.783 637.038 104.555 625.492 89.278 613.18C70.7602 598.252 53.4624 581.621 35.7275 565.791L-2 532Z" fill="#23C7C7"/>
<path d="M-190 617.887V940H170L115.463 837.897L85.4899 792.999L54.4603 746.507L41.3249 726.833L13.8698 688.832L-24.3731 635.882L-35.6091 632.108L-92.5147 613L-184.985 617.117L-190 617.887Z" fill="#FF7337"/>
<path d="M1051 -120C1053.65 -91.3428 1060.42 -63.2177 1071.1 -36.4939C1075.74 -24.8952 1081.14 -13.6157 1087.27 -2.72906C1117.26 50.4073 1163.87 89.1505 1217.89 107.337C1271.68 125.413 1330.37 122.814 1382.14 98.3198C1431.86 74.8081 1472.43 33.4572 1504.96 -13.7272C1527.77 -46.8316 1546.92 -82.7977 1563.9 -119.966L1051 -120Z" fill="#FFBB55"/>
<path d="M838 890C836.739 862.331 826.241 835.147 809.976 812.954C799.974 799.261 787.846 787.277 774.056 777.462C759.543 767.34 743.396 759.822 726.332 755.242C690.403 745.35 651.514 747.625 616.256 759.171C581.704 770.493 550.764 790.878 524.94 816.398C503.112 837.98 484.844 863.104 470 890H613.251C616.233 886.297 619.431 882.775 622.828 879.452C631.287 871.242 641.32 864.705 652.694 861.881C654.161 861.521 655.636 861.216 657.165 860.982L658.516 860.811C659.24 860.739 659.982 860.685 660.715 860.649C663.84 860.466 666.975 860.581 670.078 860.991C670.176 860.991 671.464 861.234 671.705 861.279C672.421 861.414 673.136 861.557 673.842 861.719C675.264 862.034 676.677 862.412 678.072 862.825C680.683 863.611 683.247 864.545 685.753 865.622C696.931 870.765 707.607 878.337 716.746 885.567C718.606 887.042 720.463 888.519 722.317 890H838Z" fill="#7F5FFF"/>
<path d="M1731.68 65.9963C1767.45 58.757 1806.2 44.7043 1841.11 79.6231C1860.7 100.489 1866.19 144.525 1852.18 175.863C1834.3 215.892 1797.67 246.976 1723.59 226.538C1674.19 212.911 1664.83 170.753 1667.38 131.15C1669.94 91.5467 1695.91 73.2356 1731.68 65.9963Z" fill="#7F5FFF"/>
<path d="M322.922 168.219C354.525 170.897 381.229 180.985 401.497 219.283C412.545 241.853 409.737 276.219 386.457 303.81C361.479 333.416 296.423 349.219 271.423 319.219C242.895 284.986 231.764 253.21 243.873 220.182C255.982 187.154 291.32 165.54 322.922 168.219Z" fill="#7F5FFF"/>
<path d="M718 1059H1573.93C1588.09 1020.98 1591.03 979.526 1585.13 939.435C1580.16 906.15 1569.26 874.024 1552.95 844.575C1547.04 833.872 1540.41 823.576 1533.12 813.757C1504.7 775.471 1466.77 744.653 1425.12 721.716C1382.46 698.23 1335.63 682.613 1287.83 673.609C1239.14 664.484 1189.44 661.842 1140.05 665.752C1090.15 669.508 1041.03 680.244 994.13 697.644C947.87 714.792 904.669 739.253 866.178 770.091C829.403 799.915 798.15 835.953 773.841 876.565C749.536 916.772 732.58 960.975 723.765 1007.11C720.582 1024.24 718.656 1041.59 718 1059V1059Z" fill="#FF7337"/>
<path d="M-40 -69.9733V324.81C-20.75 326.698 -1.39968 327.367 17.9348 326.81C74.7009 325.094 130.634 312.69 182.8 290.248C208.515 279.191 233.16 265.798 256.426 250.237C278.869 235.257 299.922 218.295 319.333 199.555C359.166 161.046 392.417 114.374 409.682 61.3632C423.416 19.1907 426.245 -27.054 415.224 -70L-40 -69.9733Z" fill="#FFBB55"/>
<path d="M605.425 249.215C605.395 249.345 605.378 249.479 605.374 249.613C605.332 249.824 605.341 249.452 605.425 249.215Z" fill="#F8AF44"/>
<path d="M592.979 186.232C592.716 185.74 592.827 185.893 592.979 186.232V186.232Z" fill="#F8AF44"/>
</g>
<defs>
<clipPath id="clip0_181_140">
<rect width="1920" height="853" fill="white" transform="translate(0 2)"/>
</clipPath>
</defs>
</svg>
