<svg width="28" height="26" viewBox="0 0 28 26" fill="none" xmlns="http://www.w3.org/2000/svg">
<path d="M26.7127 24.6163C26.6857 24.8911 26.8866 25.1357 27.1614 25.1627C27.4362 25.1897 27.6809 24.9888 27.7079 24.714L26.7127 24.6163ZM0.0918811 4.46895C-0.0676508 4.69435 -0.0142559 5.0064 0.211142 5.16593L3.88421 7.76565C4.10961 7.92519 4.42166 7.87179 4.58119 7.64639C4.74072 7.421 4.68733 7.10895 4.46193 6.94942L1.19698 4.63855L3.50784 1.3736C3.66737 1.1482 3.61398 0.836155 3.38858 0.676623C3.16318 0.517092 2.85114 0.570486 2.6916 0.795885L0.0918811 4.46895ZM0.58433 5.25065C0.901017 5.19646 1.21547 5.14748 1.52765 5.1036L1.38846 4.11333C1.06636 4.15861 0.742087 4.20912 0.41567 4.26498L0.58433 5.25065ZM3.41018 4.89776C4.05152 4.84795 4.68233 4.82004 5.30226 4.813L5.29091 3.81307C4.64866 3.82036 3.99581 3.84927 3.33275 3.90077L3.41018 4.89776ZM7.19641 4.85738C7.83595 4.89507 8.46263 4.95551 9.07599 5.03746L9.20841 4.04626C8.5704 3.96103 7.91917 3.89824 7.25524 3.85911L7.19641 4.85738ZM10.9377 5.35971C11.5626 5.49331 12.1719 5.64996 12.765 5.82817L13.0528 4.87047C12.4335 4.68442 11.798 4.52104 11.1468 4.38181L10.9377 5.35971ZM14.5459 6.44588C15.1379 6.67987 15.7112 6.93632 16.2653 7.21347L16.7126 6.31912C16.1324 6.0289 15.5325 5.76056 14.9134 5.51589L14.5459 6.44588ZM17.9098 8.13053C18.449 8.4641 18.9663 8.81852 19.4609 9.19178L20.0633 8.39356C19.544 8.0017 19.0013 7.62986 18.4359 7.2801L17.9098 8.13053ZM20.907 10.3943C21.3736 10.8216 21.8148 11.2671 22.2296 11.7287L22.9733 11.0602C22.5368 10.5745 22.0728 10.1059 21.5823 9.6568L20.907 10.3943ZM23.4135 13.1849C23.7863 13.6935 24.13 14.2168 24.4437 14.7521L25.3065 14.2465C24.9754 13.6815 24.6129 13.1297 24.22 12.5937L23.4135 13.1849ZM25.3054 16.4172C25.5642 16.99 25.7903 17.5728 25.9827 18.1629L26.9334 17.8529C26.7296 17.2278 26.4903 16.611 26.2166 16.0054L25.3054 16.4172ZM26.4616 19.9707C26.587 20.5832 26.6766 21.2004 26.7292 21.8195L27.7256 21.7348C27.6696 21.0762 27.5744 20.4203 27.4412 19.7701L26.4616 19.9707ZM26.7751 23.6852C26.7639 23.9959 26.7431 24.3064 26.7127 24.6163L27.7079 24.714C27.7403 24.3835 27.7625 24.0525 27.7745 23.7214L26.7751 23.6852Z" fill="black"/>
</svg>
