<svg width="124" height="124" viewBox="0 0 124 124" fill="none" xmlns="http://www.w3.org/2000/svg">
<mask id="mask0_517_2997" style="mask-type:alpha" maskUnits="userSpaceOnUse" x="0" y="0" width="124" height="124">
<path d="M102.834 108.655C91.9266 118.209 77.6396 124 62 124C27.7583 124 0 96.2417 0 62C0 27.7583 27.7583 0 62 0C96.2417 0 124 27.7583 124 62C124 76.5051 119.019 89.8468 110.674 100.408C110.321 100.312 109.953 100.254 109.572 100.238C106.506 100.111 100.302 97.217 99.1575 88.0389C98.2748 80.9576 102.329 75.6561 104.934 74.0026C107.246 72.5346 107.931 69.4696 106.463 67.1569C104.995 64.8442 101.93 64.1595 99.6173 65.6276C94.5432 68.8486 88.7021 76.7944 89.1341 87.1116C82.4525 90.5229 76.3085 93.3844 66.2086 93.3844C50.612 93.3844 38.8732 89.5416 31.2897 81.9999C29.3474 80.0683 26.2069 80.0769 24.2753 82.0193C22.3436 83.9616 22.3523 87.1021 24.2946 89.0338C34.4376 99.1208 49.1799 103.304 66.2086 103.304C77.3975 103.304 84.8702 100.305 91.4121 97.0717C93.9953 102.958 98.3678 106.74 102.834 108.655Z" fill="#23C7C7"/>
</mask>
<g mask="url(#mask0_517_2997)">
<path d="M102.834 108.655C91.9266 118.209 77.6396 124 62 124C27.7583 124 0 96.2417 0 62C0 27.7583 27.7583 0 62 0C96.2417 0 124 27.7583 124 62C124 76.5051 119.019 89.8468 110.674 100.408C110.321 100.312 109.953 100.254 109.572 100.238C106.506 100.111 100.302 97.217 99.1575 88.0389C98.2748 80.9576 102.329 75.6561 104.934 74.0026C107.246 72.5346 107.931 69.4696 106.463 67.1569C104.995 64.8442 101.93 64.1595 99.6173 65.6276C94.5432 68.8486 88.7021 76.7944 89.1341 87.1116C82.4525 90.5229 76.3085 93.3844 66.2086 93.3844C50.612 93.3844 38.8732 89.5416 31.2897 81.9999C29.3474 80.0683 26.2069 80.0769 24.2753 82.0193C22.3436 83.9616 22.3523 87.1021 24.2946 89.0338C34.4376 99.1208 49.1799 103.304 66.2086 103.304C77.3975 103.304 84.8702 100.305 91.4121 97.0717C93.9953 102.958 98.3678 106.74 102.834 108.655Z" fill="white"/>
<path opacity="0.4" fill-rule="evenodd" clip-rule="evenodd" d="M110.856 64.3706C113.863 69.1084 112.461 75.3873 107.723 78.3949C107.335 78.641 106.255 79.6147 105.376 81.3435C104.549 82.9696 104.025 85.0251 104.32 87.3967C105.142 93.9914 109.201 95.0181 109.789 95.0425C115.396 95.2745 119.753 100.008 119.521 105.615C119.289 111.222 114.556 115.579 108.949 115.347C102.143 115.066 94.3066 111.304 89.221 103.821C83.1871 106.402 75.9565 108.507 66.2099 108.507C48.4326 108.507 32.1144 104.146 20.6283 92.7228C16.6492 88.7656 16.6314 82.332 20.5886 78.3529C24.5458 74.3738 30.9794 74.356 34.9585 78.3132C41.2014 84.5217 51.3668 88.1845 66.2099 88.1845C73.7645 88.1845 78.6971 86.4305 83.9875 83.8709C84.7398 73.1791 90.9775 64.9536 96.8316 61.2376M89.4547 87.2977C82.6913 90.7554 76.4743 93.6956 66.2099 93.6956C50.5685 93.6956 38.7359 89.8421 31.0724 82.2209C29.2514 80.41 26.3072 80.4181 24.4963 82.2391C22.6854 84.06 22.6935 87.0042 24.5145 88.8151C34.5775 98.8227 49.2259 102.996 66.2099 102.996C74.755 102.996 81.1164 101.238 86.5637 98.9615C88.3124 98.2307 89.9668 97.4464 91.5691 96.6496C91.9654 97.5859 92.4072 98.4693 92.8875 99.3007C96.9301 106.299 103.706 109.615 109.177 109.841C111.743 109.947 113.909 107.953 114.015 105.387C114.121 102.821 112.127 100.655 109.561 100.549C106.347 100.416 100.015 97.4108 98.8516 88.0784C97.9522 80.8633 102.076 75.4514 104.769 73.742C106.937 72.3657 107.579 69.4923 106.203 67.3241C104.827 65.156 101.953 64.5141 99.7851 65.8904C94.7611 69.0796 88.9443 77.0064 89.4547 87.2977ZM110.856 64.3706C107.848 59.6327 101.569 58.23 96.8316 61.2376L110.856 64.3706Z" fill="white"/>
</g>
<defs>
<clipPath id="clip0_517_2997">
<rect width="84.32" height="24.8" fill="white" transform="translate(19.8403 32.2397)"/>
</clipPath>
</defs>
</svg>
