<svg width="24" height="24" viewBox="0 0 24 24" fill="none" xmlns="http://www.w3.org/2000/svg">
<path d="M18.6002 16.2008V10.1508C18.6002 6.77379 16.8072 3.94678 13.6502 3.19878V2.45079C13.6502 1.53779 12.9132 0.800785 12.0002 0.800785C11.0872 0.800785 10.3502 1.53779 10.3502 2.45079V3.19878C7.2042 3.94678 5.4002 6.76279 5.4002 10.1508V16.2008L3.2002 18.4008V19.5008H20.8002V18.4008L18.6002 16.2008ZM16.4002 17.3008H7.6002V10.1508C7.6002 7.42279 9.2612 5.20079 12.0002 5.20079C14.7392 5.20079 16.4002 7.42279 16.4002 10.1508V17.3008Z" fill="black"/>
<path d="M15.3002 20.8008C15.3002 22.0158 13.8227 23.0008 12.0002 23.0008C10.1777 23.0008 8.7002 22.0158 8.7002 20.8008H15.3002Z" fill="black"/>
</svg>
