<svg width="32" height="32" viewBox="0 0 32 32" fill="none" xmlns="http://www.w3.org/2000/svg">
<circle cx="16" cy="16" r="15" fill="white" stroke="#23C7C7" stroke-width="2"/>
<path fill-rule="evenodd" clip-rule="evenodd" d="M16.7273 13.0909C16.7273 14.6976 15.4249 16 13.8182 16C12.2116 16 10.9091 14.6976 10.9091 13.0909C10.9091 11.4843 12.2116 10.1818 13.8182 10.1818C15.4249 10.1818 16.7273 11.4843 16.7273 13.0909ZM21.0908 19.6364C21.0908 18.4146 20.3926 17.4982 19.3963 16.8218C21.4035 17.1128 23.9999 18.0509 23.9999 19.6364V21.8182H21.0908V19.6364ZM18.1818 16C19.7891 16 21.0909 14.6982 21.0909 13.0909C21.0909 11.4837 19.7891 10.1818 18.1818 10.1818C17.84 10.1818 17.52 10.2546 17.2145 10.3564C17.8182 11.1055 18.1818 12.0582 18.1818 13.0909C18.1818 14.1237 17.8182 15.0764 17.2145 15.8255C17.52 15.9273 17.84 16 18.1818 16ZM8 19.6364C8 17.7018 11.8764 16.7273 13.8182 16.7273C15.76 16.7273 19.6364 17.7018 19.6364 19.6364V21.8182H8V19.6364Z" fill="#23C7C7"/>
</svg>