<svg width="13" height="13" viewBox="0 0 13 13" fill="none" xmlns="http://www.w3.org/2000/svg">
<mask id="path-1-inside-1_242_4814" fill="white">
<path d="M13 7H7V13H6V7H0V6H6V0H7V6H13L13 7Z"/>
</mask>
<path d="M13 7H7V13H6V7H0V6H6V0H7V6H13L13 7Z" fill="black"/>
<path d="M13 7V8H14L14 7L13 7ZM7 7V6H6V7H7ZM7 13V14H8V13H7ZM6 13H5V14H6V13ZM6 7H7V6H6V7ZM0 7H-1V8H0V7ZM0 6V5H-1V6H0ZM6 6V7H7V6H6ZM6 0V-1H5V0H6ZM7 0H8V-1H7V0ZM7 6H6V7H7V6ZM13 6L14 6L14 5H13V6ZM13 6H7V8H13V6ZM6 7V13H8V7H6ZM7 12H6V14H7V12ZM7 13V7H5V13H7ZM6 6H0V8H6V6ZM1 7V6H-1V7H1ZM0 7H6V5H0V7ZM7 6V0H5V6H7ZM6 1H7V-1H6V1ZM6 0V6H8V0H6ZM7 7H13V5H7V7ZM12 6L12 7L14 7L14 6L12 6Z" fill="black" mask="url(#path-1-inside-1_242_4814)"/>
</svg>