<svg width="88" height="88" viewBox="0 0 88 88" fill="none" xmlns="http://www.w3.org/2000/svg">
<circle cx="44" cy="44" r="44" fill="white"/>
<g clip-path="url(#clip0_208_1894)">
<path d="M31.2066 61.8257V43.6557L25.5858 38.5004L20.5454 35.6396V58.6192C20.5454 60.3933 21.9793 61.8257 23.7438 61.8257H31.2066Z" fill="#4285F4"/>
<path d="M56.7935 61.8255H64.2562C66.0261 61.8255 67.4546 60.3878 67.4546 58.619V35.6396L61.7457 38.9163L56.7935 43.6555V61.8255Z" fill="#34A853"/>
<path d="M31.2065 43.6548L30.4417 36.5552L31.2065 29.7603L43.9998 39.3796L56.7932 29.7603L57.6487 36.1884L56.7932 43.6548L43.9998 53.2742L31.2065 43.6548Z" fill="#EA4335"/>
<path d="M56.7935 29.7614V43.6559L67.4546 35.6398V31.3645C67.4546 27.3993 62.9396 25.1389 59.7788 27.5169L56.7935 29.7614Z" fill="#FBBC04"/>
<path d="M20.5454 35.6399L25.4487 39.3268L31.2066 43.656V29.7615L28.2213 27.517C25.0549 25.1388 20.5454 27.3994 20.5454 31.3644V35.6397V35.6399Z" fill="#C5221F"/>
</g>
<defs>
<clipPath id="clip0_208_1894">
<rect width="46.9091" height="35.4545" fill="white" transform="translate(20.5454 26.5464)"/>
</clipPath>
</defs>
</svg>
