<svg width="300" height="45" viewBox="0 0 300 45" fill="none" xmlns="http://www.w3.org/2000/svg">
<rect width="300" height="45" rx="6" fill="black"/>
<path d="M127.734 24.94C125.874 23.935 124.404 21.925 124.404 19.39V18.34H127.344V17.26H120.069V18.34H123.039V19.39C123.039 21.955 121.599 24.1 119.604 25.27L120.444 26.23C122.004 25.315 123.354 23.635 123.729 22.09C124.149 23.545 125.694 25.195 126.954 25.93L127.734 24.94ZM129.144 15.94V29.05H130.479V15.94H129.144ZM138.268 25.6V21.88H139.918V28.405H141.178V16.24H139.918V20.8H138.268V17.365H133.048V25.6H138.268ZM143.713 29.05V15.94H142.438V29.05H143.713ZM136.993 24.55H134.308V18.43H136.993V24.55ZM156.376 22.615V15.94H155.041V22.615H156.376ZM156.841 28.96V27.865H149.176V26.575H156.376V23.29H147.811V24.37H155.041V25.585H147.856V28.96H156.841ZM149.341 16.375C147.451 16.375 145.981 17.62 145.981 19.375C145.981 21.16 147.496 22.27 149.341 22.27C151.216 22.27 152.686 21.115 152.686 19.36C152.686 17.59 151.216 16.375 149.341 16.375ZM149.341 17.515C150.586 17.515 151.381 18.28 151.381 19.36C151.381 20.38 150.571 21.16 149.341 21.16C148.171 21.16 147.286 20.425 147.286 19.36C147.286 18.28 148.201 17.515 149.341 17.515ZM174.375 27.385V26.305H169.095V24.235H173.265V23.155H165.285V21.1H172.905V17.02H163.935V18.1H171.585V20.02H163.965V24.235H167.76V26.305H162.54V27.385H174.375ZM187.354 27.145V26.065H175.519V27.145H187.354ZM185.779 17.425H176.749V18.49H184.429C184.429 20.47 184.204 23.695 183.874 24.955L185.164 25.12C185.554 23.425 185.779 20.41 185.779 17.425ZM199.252 25.465V15.94H197.917V25.465H199.252ZM199.552 28.645V27.58H191.962V24.565H190.627V28.645H199.552ZM192.292 16.825C190.282 16.825 188.797 18.22 188.797 20.11C188.797 21.985 190.282 23.29 192.292 23.29C194.317 23.29 195.802 21.985 195.802 20.095C195.802 18.22 194.317 16.825 192.292 16.825ZM192.292 17.965C193.582 17.965 194.392 18.85 194.392 20.095C194.392 21.295 193.582 22.18 192.292 22.18C191.062 22.18 190.192 21.28 190.192 20.08C190.192 18.865 191.062 17.965 192.292 17.965Z" fill="white"/>
<g clip-path="url(#clip0_2062_9673)">
<path d="M32.4881 20.3774C32.5931 20.9814 32.6454 21.5935 32.6445 22.2066C32.6445 24.9449 31.6658 27.2601 29.9625 28.8272H29.9648C28.4753 30.2031 26.4277 30.9996 24 30.9996C21.6131 30.9996 19.3239 30.0514 17.636 28.3636C15.9482 26.6758 15 24.3866 15 21.9996C15 19.6127 15.9482 17.3235 17.636 15.6357C19.3239 13.9478 21.6131 12.9996 24 12.9996C26.2342 12.9735 28.3918 13.8128 30.021 15.3419L27.4515 17.9114C26.5227 17.026 25.2831 16.5411 24 16.5614C21.6521 16.5614 19.6575 18.1454 18.9465 20.2784C18.5695 21.3961 18.5695 22.6065 18.9465 23.7242H18.9499C19.6642 25.8539 21.6555 27.4379 24.0034 27.4379C25.2161 27.4379 26.2579 27.1274 27.0656 26.5784H27.0623C27.5313 26.2676 27.9325 25.8651 28.2416 25.3951C28.5508 24.925 28.7616 24.3972 28.8611 23.8435H24V20.3785H32.4881V20.3774Z" fill="white"/>
</g>
<defs>
<clipPath id="clip0_2062_9673">
<rect width="18" height="18" fill="white" transform="translate(15 13)"/>
</clipPath>
</defs>
</svg>
