<svg width="88" height="88" viewBox="0 0 88 88" fill="none" xmlns="http://www.w3.org/2000/svg">
<circle cx="44" cy="44" r="44" fill="white"/>
<path d="M43.9999 24.5977C56.4406 24.5977 66.5257 32.4581 66.5257 42.157C66.5257 51.8539 56.4406 59.7143 43.9999 59.7143C42.7611 59.7149 41.5236 59.6361 40.2949 59.4783L30.8384 65.6632C29.7636 66.2317 29.3839 66.1695 29.8258 64.7772L31.7394 56.8868C25.5609 53.7546 21.4741 48.327 21.4741 42.157C21.4741 32.4602 31.5592 24.5977 43.9999 24.5977ZM56.6723 41.8889L59.8259 38.834C60.0078 38.645 60.1094 38.3927 60.109 38.1304C60.1087 37.868 60.0066 37.616 59.8242 37.4275C59.6418 37.239 59.3933 37.1286 59.1311 37.1196C58.8689 37.1106 58.6134 37.2038 58.4185 37.3794L54.2824 41.3826V38.0745C54.2824 37.806 54.1757 37.5484 53.9858 37.3585C53.7959 37.1686 53.5384 37.0619 53.2698 37.0619C53.0012 37.0619 52.7437 37.1686 52.5538 37.3585C52.3639 37.5484 52.2572 37.806 52.2572 38.0745V43.5601C52.2193 43.7166 52.2193 43.8798 52.2572 44.0363V47.1234C52.2572 47.392 52.3639 47.6495 52.5538 47.8394C52.7437 48.0293 53.0012 48.136 53.2698 48.136C53.5384 48.136 53.7959 48.0293 53.9858 47.8394C54.1757 47.6495 54.2824 47.392 54.2824 47.1234V44.1994L55.1984 43.3134L58.2619 47.6748C58.3384 47.7837 58.4356 47.8764 58.548 47.9478C58.6603 48.0191 58.7856 48.0676 58.9167 48.0905C59.0477 48.1134 59.182 48.1103 59.3119 48.0813C59.4418 48.0523 59.5647 47.998 59.6736 47.9215C59.7824 47.845 59.8752 47.7478 59.9465 47.6355C60.0179 47.5231 60.0664 47.3979 60.0893 47.2668C60.1122 47.1357 60.109 47.0014 60.08 46.8715C60.051 46.7417 59.9968 46.6188 59.9203 46.5099L56.6723 41.8867V41.8889ZM50.3264 46.0165H47.1943V38.1067C47.1823 37.8465 47.0705 37.6009 46.8821 37.421C46.6937 37.2411 46.4432 37.1407 46.1828 37.1407C45.9223 37.1407 45.6718 37.2411 45.4834 37.421C45.295 37.6009 45.1832 37.8465 45.1712 38.1067V47.029C45.1712 47.5868 45.6218 48.0416 46.1817 48.0416H50.3264C50.595 48.0416 50.8525 47.9349 51.0424 47.7451C51.2323 47.5552 51.339 47.2976 51.339 47.029C51.339 46.7605 51.2323 46.5029 51.0424 46.313C50.8525 46.1231 50.595 46.0165 50.3264 46.0165ZM37.7613 43.6738L39.2545 40.0117L40.6232 43.6738H37.7613ZM43.174 44.7207L43.1782 44.6864C43.1777 44.4313 43.0804 44.1859 42.9058 43.9999L40.6618 37.993C40.5677 37.7067 40.3885 37.456 40.1482 37.2743C39.9078 37.0926 39.6177 36.9886 39.3167 36.9761C39.0134 36.9748 38.7169 37.0658 38.4667 37.2371C38.2164 37.4084 38.0243 37.6519 37.9158 37.9351L34.3524 46.6772C34.3021 46.8003 34.2766 46.9321 34.2773 47.0651C34.2779 47.1981 34.3047 47.3297 34.3562 47.4523C34.4077 47.5749 34.4829 47.6862 34.5774 47.7797C34.6719 47.8733 34.7839 47.9474 34.907 47.9977C35.0301 48.0479 35.1619 48.0735 35.2949 48.0728C35.4279 48.0722 35.5595 48.0453 35.6821 47.9938C35.8047 47.9423 35.916 47.8672 36.0095 47.7727C36.1031 47.6782 36.1771 47.5662 36.2274 47.4431L36.9354 45.699H41.3762L42.0176 47.4152C42.0612 47.5435 42.1302 47.6617 42.2203 47.7629C42.3104 47.8641 42.42 47.9461 42.5424 48.0042C42.6648 48.0622 42.7976 48.0952 42.933 48.101C43.0684 48.1068 43.2035 48.0853 43.3305 48.0379C43.4574 47.9905 43.5735 47.9182 43.672 47.8251C43.7705 47.732 43.8492 47.6201 43.9037 47.496C43.9581 47.3719 43.987 47.2382 43.9888 47.1027C43.9906 46.9672 43.9652 46.8327 43.9141 46.7072L43.174 44.7207ZM36.0472 38.1174C36.0472 37.8492 35.9408 37.592 35.7514 37.4022C35.562 37.2123 35.305 37.1054 35.0368 37.1048H28.0752C27.8067 37.1048 27.5491 37.2115 27.3592 37.4014C27.1693 37.5913 27.0627 37.8489 27.0627 38.1174C27.0627 38.386 27.1693 38.6435 27.3592 38.8334C27.5491 39.0233 27.8067 39.13 28.0752 39.13H30.5638V47.1449C30.5638 47.4134 30.6705 47.671 30.8604 47.8609C31.0503 48.0508 31.3078 48.1575 31.5764 48.1575C31.845 48.1575 32.1025 48.0508 32.2924 47.8609C32.4823 47.671 32.589 47.4134 32.589 47.1449V39.13H35.0346C35.3032 39.13 35.5608 39.0233 35.7506 38.8334C35.9405 38.6435 36.0472 38.386 36.0472 38.1174Z" fill="black"/>
</svg>
