<svg width="300" height="45" viewBox="0 0 300 45" fill="none" xmlns="http://www.w3.org/2000/svg">
<rect width="300" height="45" rx="6" fill="#FEE500"/>
<path d="M126.474 17.32H120.384V18.445H125.079C125.049 19.15 124.929 19.81 124.734 20.425L119.859 20.8L120.099 21.97L124.299 21.52C123.369 23.365 121.719 24.775 119.649 25.72L120.474 26.74C124.164 24.88 126.459 21.925 126.474 17.32ZM129.789 15.94H128.469V29.05H129.789V22.315H131.874V21.22H129.789V15.94ZM139.453 17.32H133.363V18.445H138.058C138.028 19.15 137.908 19.81 137.713 20.425L132.838 20.8L133.078 21.97L137.278 21.52C136.348 23.365 134.698 24.775 132.628 25.72L133.453 26.74C137.143 24.88 139.438 21.925 139.453 17.32ZM142.768 15.94H141.448V29.05H142.768V22.315H144.853V21.22H142.768V15.94ZM156.421 20.395C156.421 18.205 154.486 16.75 151.531 16.75C148.606 16.75 146.656 18.205 146.656 20.395C146.656 22.435 148.306 23.815 150.856 24.025V26.26H145.621V27.355H157.456V26.26H152.191V24.04C154.756 23.845 156.421 22.435 156.421 20.395ZM155.056 20.395C155.056 21.895 153.646 22.93 151.531 22.93C149.416 22.93 148.021 21.895 148.021 20.395C148.021 18.91 149.416 17.86 151.531 17.86C153.661 17.86 155.056 18.91 155.056 20.395ZM174.375 27.385V26.305H169.095V24.235H173.265V23.155H165.285V21.1H172.905V17.02H163.935V18.1H171.585V20.02H163.965V24.235H167.76V26.305H162.54V27.385H174.375ZM187.354 27.145V26.065H175.519V27.145H187.354ZM185.779 17.425H176.749V18.49H184.429C184.429 20.47 184.204 23.695 183.874 24.955L185.164 25.12C185.554 23.425 185.779 20.41 185.779 17.425ZM199.252 25.465V15.94H197.917V25.465H199.252ZM199.552 28.645V27.58H191.962V24.565H190.627V28.645H199.552ZM192.292 16.825C190.282 16.825 188.797 18.22 188.797 20.11C188.797 21.985 190.282 23.29 192.292 23.29C194.317 23.29 195.802 21.985 195.802 20.095C195.802 18.22 194.317 16.825 192.292 16.825ZM192.292 17.965C193.582 17.965 194.392 18.85 194.392 20.095C194.392 21.295 193.582 22.18 192.292 22.18C191.062 22.18 190.192 21.28 190.192 20.08C190.192 18.865 191.062 17.965 192.292 17.965Z" fill="black"/>
<path fill-rule="evenodd" clip-rule="evenodd" d="M23.9995 14.4707C19.29 14.4707 15 17.5093 15 21.2576C15 23.588 16.558 25.6441 18.931 26.8656L17.9325 30.4259C17.8445 30.7416 18.213 30.9918 18.4965 30.8096L22.873 27.9896C23.2425 28.0246 23.618 28.0445 23.9995 28.0445C28.9705 28.0445 32.9995 25.0058 32.9995 21.2576C32.9995 17.5093 28.9705 14.4707 23.9995 14.4707Z" fill="black" fill-opacity="0.902"/>
</svg>
