<svg width="11" height="14" viewBox="0 0 11 14" fill="none" xmlns="http://www.w3.org/2000/svg">
<path d="M8.86518 4.81174H8.24678V3.57493C8.24678 1.86814 6.86155 0.48291 5.15476 0.48291C3.44796 0.48291 2.06273 1.86814 2.06273 3.57493V4.81174H1.44433C0.764084 4.81174 0.20752 5.36831 0.20752 6.04855V12.2326C0.20752 12.9128 0.764084 13.4694 1.44433 13.4694H8.86518C9.54543 13.4694 10.102 12.9128 10.102 12.2326V6.04855C10.102 5.36831 9.54543 4.81174 8.86518 4.81174ZM5.15476 10.3774C4.47451 10.3774 3.91795 9.82082 3.91795 9.14058C3.91795 8.46033 4.47451 7.90377 5.15476 7.90377C5.835 7.90377 6.39157 8.46033 6.39157 9.14058C6.39157 9.82082 5.835 10.3774 5.15476 10.3774ZM3.29954 4.81174V3.57493C3.29954 2.54838 4.1282 1.71972 5.15476 1.71972C6.18131 1.71972 7.00997 2.54838 7.00997 3.57493V4.81174H3.29954Z" fill="black"/>
</svg>
