<svg width="120" height="38" viewBox="0 0 120 38" fill="none" xmlns="http://www.w3.org/2000/svg">
<path d="M48.3288 18.9621C48.9394 18.9621 49.3774 19.0925 49.6429 19.3533C49.9349 19.6141 50.0809 19.9532 50.0809 20.3705C50.0809 21.0486 49.8686 21.6485 49.4438 22.1701C49.0456 22.6917 48.4085 22.9656 47.5324 22.9917C45.4352 23.0178 43.5504 22.8613 41.8779 22.5222C40.0196 26.4083 37.7764 29.6425 35.1483 32.2245C32.5467 34.7805 29.9716 36.0585 27.4231 36.0585C25.0869 36.0585 23.3348 34.8457 22.1668 32.4201C20.9987 29.9685 20.335 26.6952 20.1757 22.6005C18.5829 27.1386 16.7777 30.5162 14.7602 32.7331C12.7691 34.95 10.6454 36.0585 8.38888 36.0585C5.84037 36.0585 3.91571 34.5067 2.61491 31.403C1.31411 28.2732 0.663707 24.0741 0.663707 18.8056C0.663707 14.9716 1.00882 10.7594 1.69904 6.1691C1.88487 4.86503 2.21671 3.96522 2.69455 3.46967C3.19895 2.94804 3.98208 2.68722 5.04396 2.68722C5.84037 2.68722 6.45095 2.85675 6.8757 3.19581C7.327 3.53487 7.55265 4.16083 7.55265 5.07368C7.55265 5.25625 7.52611 5.60835 7.47301 6.12998C6.6766 11.4767 6.2784 16.0279 6.2784 19.7836C6.2784 23.2786 6.58369 25.978 7.19427 27.882C7.80485 29.7859 8.62781 30.7379 9.66314 30.7379C10.5923 30.7379 11.7073 29.7859 13.0081 27.882C14.3354 25.9519 15.6495 23.109 16.9503 19.3533C18.2511 15.5715 19.3528 11.0724 20.2554 5.85613C20.4678 4.65638 20.8527 3.83481 21.4102 3.39142C21.9942 2.92195 22.7774 2.68722 23.7596 2.68722C24.5826 2.68722 25.1799 2.86979 25.5515 3.23493C25.9497 3.57399 26.1488 4.09562 26.1488 4.79982C26.1488 5.21713 26.1223 5.54315 26.0692 5.77788C25.3259 10.0292 24.9542 14.2805 24.9542 18.5317C24.9542 21.4268 25.0471 23.735 25.233 25.4564C25.4453 27.1778 25.8303 28.4949 26.3877 29.4077C26.9718 30.2945 27.808 30.7379 28.8964 30.7379C30.1707 30.7379 31.591 29.7989 33.1572 27.9211C34.7235 26.0171 36.157 23.6567 37.4578 20.8399C35.8385 19.8489 34.6173 18.5709 33.7944 17.006C32.9714 15.415 32.5599 13.5893 32.5599 11.5288C32.5599 9.46841 32.8785 7.73399 33.5156 6.32559C34.1793 4.89111 35.0686 3.82177 36.1836 3.11757C37.3251 2.41337 38.5861 2.06127 39.9665 2.06127C41.6655 2.06127 43.0062 2.66114 43.9884 3.86089C44.9972 5.06064 45.5016 6.70377 45.5016 8.79029C45.5016 11.7375 44.8512 15.0107 43.5504 18.61C44.9043 18.8447 46.4971 18.9621 48.3288 18.9621ZM36.5818 11.255C36.5818 13.811 37.418 15.7019 39.0905 16.9277C40.1258 14.0066 40.6435 11.5941 40.6435 9.6901C40.6435 8.59468 40.4975 7.7992 40.2055 7.30365C39.9134 6.78202 39.5152 6.5212 39.0108 6.5212C38.2941 6.5212 37.71 6.93851 37.2587 7.77311C36.8074 8.58164 36.5818 9.74227 36.5818 11.255Z" fill="black"/>
<path d="M60.466 28.3123C60.8111 28.3123 61.0766 28.4688 61.2624 28.7818C61.4748 29.0947 61.581 29.5251 61.581 30.0728C61.581 31.0117 61.3553 31.8203 60.904 32.4984C60.1607 33.6199 59.1785 34.4936 57.9573 35.1196C56.7627 35.7455 55.3292 36.0585 53.6567 36.0585C51.1082 36.0585 49.1304 35.3152 47.7234 33.8285C46.3165 32.3158 45.613 30.2815 45.613 27.7255C45.613 25.9258 45.9979 24.2566 46.7678 22.7178C47.5376 21.1529 48.5995 19.9141 49.9534 19.0012C51.3338 18.0883 52.8868 17.6319 54.6124 17.6319C56.1521 17.6319 57.3866 18.0883 58.3157 19.0012C59.2448 19.888 59.7094 21.1008 59.7094 22.6396C59.7094 24.4392 59.0457 25.991 57.7184 27.2951C56.4176 28.5731 54.1876 29.5903 51.0285 30.3467C51.6657 31.5464 52.7408 32.1463 54.254 32.1463C55.3424 32.1463 56.2318 31.8985 56.922 31.403C57.6387 30.9074 58.4617 30.0728 59.3908 28.8991C59.7094 28.5079 60.0678 28.3123 60.466 28.3123ZM53.9354 21.4659C52.9532 21.4659 52.117 22.0267 51.4267 23.1482C50.7631 24.2697 50.4312 25.6259 50.4312 27.2169V27.2951C51.9975 26.93 53.2319 26.3823 54.1345 25.652C55.0371 24.9217 55.4884 24.0741 55.4884 23.109C55.4884 22.6135 55.3424 22.2223 55.0504 21.9354C54.7849 21.6224 54.4133 21.4659 53.9354 21.4659Z" fill="black"/>
<path d="M109.979 21.3485C109.925 22.6526 109.899 23.6698 109.899 24.4001C109.899 26.2779 109.992 27.7515 110.178 28.8209C110.39 29.8641 110.722 30.6205 111.173 31.09C111.651 31.5334 112.301 31.7551 113.124 31.7551C113.549 31.7551 114.054 31.6246 114.638 31.3638C115.222 31.103 115.753 30.764 116.23 30.3467C116.522 30.0858 116.814 29.9554 117.106 29.9554C117.425 29.9554 117.677 30.138 117.863 30.5031C118.075 30.8422 118.182 31.2595 118.182 31.7551C118.182 32.2506 118.075 32.7331 117.863 33.2026C117.677 33.672 117.385 34.0633 116.987 34.3762C115.607 35.4978 114.04 36.0585 112.288 36.0585C109.766 36.0585 107.921 35.0283 106.753 32.9678C105.585 30.8813 105.001 28.1688 105.001 24.8304C105.001 23.6828 105.041 22.5222 105.12 21.3485H102.24C101.444 21.3485 100.899 21.2051 100.607 20.9182C100.342 20.6313 100.209 20.1749 100.209 19.5489C100.209 18.0883 100.807 17.3581 102.001 17.3581H105.598C106.05 14.4891 106.74 11.8679 107.669 9.49449C108.598 7.12108 109.713 5.23017 111.014 3.82177C112.341 2.41337 113.761 1.70917 115.275 1.70917C116.39 1.70917 117.266 2.19167 117.903 3.15669C118.54 4.1217 118.859 5.33449 118.859 6.79506C118.859 10.8377 117.133 14.3587 113.682 17.3581H118.142C118.567 17.3581 118.872 17.4494 119.058 17.6319C119.243 17.8145 119.336 18.1536 119.336 18.6491C119.336 20.4487 117.836 21.3485 114.837 21.3485H109.979ZM114.2 5.4649C113.801 5.4649 113.35 5.96045 112.846 6.95155C112.368 7.91656 111.903 9.2728 111.452 11.0203C111.027 12.7416 110.669 14.6586 110.377 16.7712C111.943 15.4411 113.111 13.9544 113.881 12.3113C114.677 10.6421 115.076 9.12935 115.076 7.77311C115.076 6.23431 114.784 5.4649 114.2 5.4649Z" fill="black"/>
<path fill-rule="evenodd" clip-rule="evenodd" d="M48.8549 19.001C49.1498 19.0493 49.3851 19.1427 49.5608 19.2812C49.6888 19.1847 49.8197 19.0913 49.9534 19.0012C49.9664 18.9926 49.9794 18.984 49.9925 18.9755C50.0262 18.9535 50.06 18.9317 50.0938 18.9103C50.1015 18.9054 50.1091 18.9006 50.1168 18.8958C51.456 18.0532 52.9546 17.6319 54.6124 17.6319C56.1521 17.6319 57.3866 18.0883 58.3157 19.0012C59.2448 19.888 59.7094 21.1008 59.7094 22.6396C59.7094 24.4392 59.0457 25.991 57.7184 27.2951C56.5107 28.4816 54.5021 29.4433 51.6927 30.1802C51.476 30.237 51.2547 30.2925 51.0285 30.3467C51.1411 30.5586 51.2673 30.7518 51.4072 30.9263C52.0592 31.7396 53.0081 32.1463 54.254 32.1463C55.3424 32.1463 56.2318 31.8985 56.922 31.403C57.6387 30.9074 58.4617 30.0728 59.3908 28.8991C59.7094 28.5079 60.0678 28.3123 60.466 28.3123C60.8111 28.3123 61.0766 28.4688 61.2624 28.7818C61.4748 29.0947 61.581 29.5251 61.581 30.0728C61.581 31.0117 61.3553 31.8203 60.904 32.4984C60.1607 33.6199 59.1785 34.4936 57.9573 35.1196C56.7627 35.7455 55.3292 36.0585 53.6567 36.0585C51.1082 36.0585 49.1304 35.3152 47.7234 33.8285C46.3165 32.3158 45.613 30.2815 45.613 27.7255C45.613 26.279 45.8616 24.9169 46.3589 23.6389C46.4438 23.4207 46.536 23.2049 46.6355 22.9915C46.3931 22.9884 46.1537 22.9826 45.9173 22.9742C44.4557 22.9225 43.1093 22.7718 41.8779 22.5222C40.0196 26.4083 37.7764 29.6425 35.1483 32.2245C32.5467 34.7805 29.9716 36.0585 27.4231 36.0585C25.0869 36.0585 23.3348 34.8457 22.1668 32.4201C21.1615 30.3101 20.5297 27.5915 20.2717 24.2643C20.2299 23.7256 20.1979 23.171 20.1757 22.6005C19.9865 23.1397 19.7942 23.6625 19.5989 24.169C18.1509 27.9249 16.538 30.7796 14.7602 32.7331C12.7691 34.95 10.6454 36.0585 8.38888 36.0585C5.84037 36.0585 3.91571 34.5067 2.61491 31.403C1.31411 28.2732 0.663707 24.0741 0.663707 18.8056C0.663707 14.9716 1.00882 10.7594 1.69904 6.1691C1.88487 4.86503 2.21671 3.96522 2.69455 3.46967C3.19895 2.94804 3.98208 2.68722 5.04396 2.68722C5.84037 2.68722 6.45095 2.85675 6.8757 3.19581C7.327 3.53487 7.55265 4.16083 7.55265 5.07368C7.55265 5.25625 7.52611 5.60835 7.47301 6.12998C6.6766 11.4767 6.2784 16.0279 6.2784 19.7836C6.2784 23.2786 6.58369 25.978 7.19427 27.882C7.80485 29.7859 8.62781 30.7379 9.66314 30.7379C10.5923 30.7379 11.7073 29.7859 13.0081 27.882C14.3354 25.9519 15.6495 23.109 16.9503 19.3533C18.2511 15.5715 19.3528 11.0724 20.2554 5.85613C20.4678 4.65638 20.8527 3.83481 21.4102 3.39142C21.9942 2.92195 22.7774 2.68722 23.7596 2.68722C24.5826 2.68722 25.1799 2.86979 25.5515 3.23493C25.9497 3.57399 26.1488 4.09562 26.1488 4.79982C26.1488 5.21713 26.1223 5.54315 26.0692 5.77788C25.3259 10.0292 24.9542 14.2805 24.9542 18.5317C24.9542 21.4268 25.0471 23.735 25.233 25.4564C25.4453 27.1778 25.8303 28.4949 26.3877 29.4077C26.9718 30.2945 27.808 30.7379 28.8964 30.7379C30.1707 30.7379 31.591 29.7989 33.1572 27.9211C34.7235 26.0171 36.157 23.6567 37.4578 20.8399C35.8385 19.8489 34.6173 18.5709 33.7944 17.006C32.9714 15.415 32.5599 13.5893 32.5599 11.5288C32.5599 9.46841 32.8785 7.73399 33.5156 6.32559C34.1793 4.89111 35.0686 3.82177 36.1836 3.11757C37.3251 2.41337 38.5861 2.06127 39.9665 2.06127C41.6655 2.06127 43.0062 2.66114 43.9884 3.86089C44.9972 5.06064 45.5016 6.70377 45.5016 8.79029C45.5016 11.5662 44.9246 14.6314 43.7706 17.9857C43.6994 18.1927 43.626 18.4008 43.5504 18.61C43.7665 18.6475 43.9887 18.682 44.2171 18.7134C45.4189 18.8792 46.7895 18.9621 48.3288 18.9621C48.5214 18.9621 48.6967 18.9751 48.8549 19.001ZM44.4368 18.0849C45.5705 18.2341 46.8669 18.3101 48.3288 18.3101C48.7479 18.3101 49.1565 18.3636 49.5134 18.5074C49.5348 18.4927 49.5563 18.4781 49.5778 18.4636L49.5828 18.4603C51.077 17.4722 52.7599 16.9799 54.6124 16.9799C56.2938 16.9799 57.7071 17.4831 58.7816 18.5369C59.8632 19.5711 60.3731 20.9659 60.3731 22.6396C60.3731 24.6169 59.636 26.3332 58.1876 27.7562C56.9011 29.0202 54.8513 29.9993 52.1242 30.7407C52.2815 30.8966 52.4538 31.0252 52.6405 31.1294C53.058 31.3624 53.5867 31.4943 54.254 31.4943C55.2403 31.4943 55.9815 31.2706 56.5304 30.8765L56.5352 30.8731L56.54 30.8697C57.1778 30.4288 57.9534 29.6528 58.8669 28.4988L58.8725 28.4918C59.2786 27.9931 59.8118 27.6603 60.466 27.6603C61.0594 27.6603 61.5299 27.95 61.8254 28.4362C62.1285 28.8921 62.2446 29.4594 62.2446 30.0728C62.2446 31.1174 61.9923 32.0542 61.4602 32.8542C60.6545 34.0698 59.5869 35.0191 58.2671 35.6962C56.9569 36.3822 55.4117 36.7106 53.6567 36.7106C50.97 36.7106 48.7983 35.9218 47.2374 34.2726L47.2335 34.2684C45.6889 32.6077 44.9493 30.4023 44.9493 27.7255C44.9493 26.2812 45.1853 24.9102 45.6594 23.6167C44.4519 23.565 43.3171 23.4458 42.2561 23.258C40.4144 26.9986 38.2036 30.1449 35.6175 32.6856C32.9468 35.3094 30.2129 36.7106 27.423 36.7106C26.1311 36.7106 24.9727 36.3728 23.9746 35.682C22.9826 34.9953 22.1867 33.9862 21.5668 32.699L21.5657 32.6966C20.6538 30.7827 20.048 28.4168 19.7329 25.6142C18.3928 28.8282 16.9048 31.3543 15.2564 33.1661C13.184 35.473 10.8932 36.7106 8.38885 36.7106C6.96499 36.7106 5.69697 36.2727 4.61294 35.3987C3.54024 34.5337 2.67855 33.2674 2.00119 31.6512L2.00045 31.6495C0.654127 28.4102 0 24.1165 0 18.8056C0 14.9346 0.34832 10.6909 1.0421 6.07624C1.2321 4.74463 1.58598 3.67121 2.21272 3.02125L2.21336 3.02059C2.89041 2.32041 3.88277 2.0352 5.04393 2.0352C5.92166 2.0352 6.70109 2.22003 7.28675 2.68386C7.97777 3.20835 8.21629 4.09002 8.21629 5.07369C8.21629 5.29384 8.18601 5.67761 8.13336 6.19488L8.13186 6.20968L8.12966 6.22441C7.33608 11.5522 6.94204 16.0699 6.94204 19.7837C6.94204 23.254 7.24673 25.8759 7.82724 27.686C8.11999 28.5989 8.44512 29.2199 8.77524 29.6018C9.09199 29.9682 9.38397 30.0859 9.66311 30.0859C9.89667 30.0859 10.2568 29.9622 10.7609 29.5318C11.2563 29.1087 11.8227 28.447 12.457 27.5186L12.4581 27.5169C13.7373 25.657 15.0287 22.877 16.3218 19.1437C17.6084 15.403 18.7026 10.9392 19.6011 5.74686L19.6015 5.74442C19.823 4.49329 20.2463 3.47898 20.9913 2.88569C21.7254 2.29616 22.6716 2.0352 23.7596 2.0352C24.6526 2.0352 25.4534 2.2286 26.0039 2.75746C26.5817 3.26006 26.8125 3.98631 26.8125 4.79984C26.8125 5.22752 26.7865 5.60248 26.7207 5.90272C25.9854 10.1133 25.6179 14.3228 25.6179 18.5318C25.6179 21.4141 25.7104 23.6948 25.8924 25.3828C26.099 27.0543 26.4657 28.2632 26.951 29.0627C27.4103 29.7547 28.0335 30.0859 28.8964 30.0859C29.8483 30.0859 31.0953 29.3639 32.6425 27.5094C34.0716 25.7719 35.3976 23.6304 36.6159 21.0767C35.1414 20.0748 33.9999 18.8173 33.2047 17.3053L33.2027 17.3014C32.3255 15.6057 31.8962 13.6761 31.8962 11.5289C31.8962 9.40633 32.2238 7.5756 32.9091 6.06079L32.9114 6.05578C33.6167 4.53135 34.5817 3.35415 35.8247 2.5691L35.8306 2.56535C37.0805 1.79427 38.4644 1.40924 39.9665 1.40924C41.8456 1.40924 43.3831 2.08325 44.5027 3.44879C45.637 4.79959 46.1652 6.60574 46.1652 8.79031C46.1652 11.6227 45.5832 14.7228 44.4368 18.0849ZM39.6274 7.62416L39.6239 7.61789C39.4206 7.25465 39.2202 7.17325 39.0108 7.17325C38.6233 7.17325 38.2264 7.37337 37.8448 8.07904L37.8407 8.08668C37.467 8.75622 37.2454 9.78947 37.2454 11.255C37.2454 13.2394 37.7748 14.7236 38.7809 15.7846C39.5896 13.3193 39.9798 11.2929 39.9798 9.69012C39.9798 8.62209 39.8321 7.97149 39.6311 7.63036L39.6274 7.62416ZM38.5463 16.4781C38.7166 16.6368 38.898 16.7867 39.0905 16.9277C39.1687 16.7071 39.2439 16.4893 39.3162 16.2745C40.201 13.645 40.6435 11.4502 40.6435 9.6901C40.6435 8.59468 40.4975 7.7992 40.2055 7.30365C39.9134 6.78202 39.5152 6.5212 39.0108 6.5212C38.2941 6.5212 37.71 6.93851 37.2587 7.77311C36.8074 8.58164 36.5818 9.74227 36.5818 11.255C36.5818 13.5169 37.2366 15.2579 38.5463 16.4781ZM54.5598 22.3755L54.5405 22.3528C54.4211 22.2121 54.2498 22.118 53.9354 22.118C53.2667 22.118 52.615 22.4798 51.9976 23.4808C51.5128 24.3019 51.2159 25.2812 51.1249 26.4343C52.2145 26.1023 53.07 25.6686 53.7126 25.1487C54.4944 24.5161 54.8247 23.8415 54.8247 23.1091C54.8247 22.7457 54.7221 22.535 54.5811 22.3964L54.5598 22.3755ZM51.0953 27.1237C50.9824 27.1559 50.8676 27.1869 50.7509 27.2169C50.6459 27.2438 50.5394 27.2699 50.4312 27.2951V27.2169C50.4312 27.0141 50.4366 26.8153 50.4474 26.6201C50.5212 25.2841 50.8476 24.1268 51.4267 23.1482C52.117 22.0267 52.9532 21.4659 53.9354 21.4659C54.4133 21.4659 54.7849 21.6224 55.0504 21.9354C55.3424 22.2223 55.4884 22.6135 55.4884 23.109C55.4884 24.0741 55.0371 24.9217 54.1345 25.652C53.3636 26.2758 52.3505 26.7664 51.0953 27.1237ZM106.173 33.2851L106.172 33.2821C104.932 31.0684 104.337 28.237 104.337 24.8304C104.337 23.8954 104.363 22.9521 104.416 22.0006H102.24C101.412 22.0006 100.629 21.8614 100.138 21.3793L100.127 21.3683L100.116 21.3568C99.6888 20.8948 99.5455 20.2429 99.5455 19.5489C99.5455 18.7485 99.7064 18.0274 100.14 17.4974C100.596 16.9401 101.258 16.706 102.001 16.706H105.033C105.49 14.0114 106.162 11.5287 107.049 9.26044C107.999 6.83567 109.151 4.86809 110.522 3.38362L110.527 3.37876C111.941 1.87814 113.526 1.05714 115.275 1.05714C116.628 1.05714 117.707 1.66266 118.46 2.80187C119.183 3.89769 119.522 5.24234 119.522 6.79507C119.522 10.5391 118.107 13.8482 115.33 16.706H118.142C118.639 16.706 119.159 16.809 119.527 17.1709C119.911 17.5483 120 18.1214 120 18.6491C120 19.7645 119.515 20.6559 118.557 21.2302C117.653 21.7726 116.382 22.0006 114.837 22.0006H110.617C110.581 23.0032 110.563 23.8023 110.563 24.4001C110.563 26.2581 110.655 27.6864 110.83 28.7021C111.03 29.6767 111.322 30.287 111.643 30.6287C111.968 30.9232 112.436 31.103 113.124 31.103C113.419 31.103 113.825 31.0104 114.363 30.7703C114.886 30.5368 115.36 30.2341 115.787 29.8612C116.157 29.5318 116.6 29.3034 117.106 29.3034C117.744 29.3034 118.184 29.6913 118.443 30.1858C118.723 30.6447 118.845 31.1785 118.845 31.7551C118.845 32.3403 118.72 32.9081 118.476 33.4535C118.248 34.0213 117.89 34.5007 117.406 34.8819C115.91 36.0956 114.197 36.7106 112.288 36.7106C110.934 36.7106 109.725 36.4333 108.685 35.8527C107.643 35.2712 106.808 34.4056 106.173 33.2851ZM116.987 34.3762C117.385 34.0633 117.677 33.672 117.863 33.2026C118.075 32.7331 118.182 32.2506 118.182 31.7551C118.182 31.2595 118.075 30.8422 117.863 30.5031C117.677 30.138 117.425 29.9554 117.106 29.9554C116.814 29.9554 116.522 30.0858 116.23 30.3467C115.753 30.764 115.222 31.103 114.638 31.3638C114.054 31.6246 113.549 31.7551 113.124 31.7551C112.301 31.7551 111.651 31.5334 111.173 31.09C110.722 30.6205 110.39 29.8641 110.178 28.8209C109.992 27.7515 109.899 26.2779 109.899 24.4001C109.899 23.6698 109.925 22.6526 109.979 21.3485H114.837C117.836 21.3485 119.336 20.4487 119.336 18.6491C119.336 18.1536 119.243 17.8145 119.058 17.6319C118.872 17.4494 118.567 17.3581 118.142 17.3581H113.682C113.929 17.1434 114.167 16.9261 114.396 16.706C117.371 13.852 118.859 10.5483 118.859 6.79506C118.859 5.33449 118.54 4.1217 117.903 3.15669C117.266 2.19167 116.39 1.70917 115.275 1.70917C113.761 1.70917 112.341 2.41337 111.014 3.82177C109.713 5.23017 108.598 7.12108 107.669 9.49449C106.74 11.8679 106.05 14.4891 105.598 17.3581H102.001C100.807 17.3581 100.209 18.0883 100.209 19.5489C100.209 20.1749 100.342 20.6313 100.607 20.9182C100.899 21.2051 101.444 21.3485 102.24 21.3485H105.12C105.106 21.5663 105.092 21.7837 105.08 22.0006C105.027 22.9525 105.001 23.8958 105.001 24.8304C105.001 28.1688 105.585 30.8813 106.753 32.9678C107.921 35.0283 109.766 36.0585 112.288 36.0585C114.04 36.0585 115.607 35.4978 116.987 34.3762ZM113.278 12.0387L113.28 12.0346C114.049 10.4225 114.412 9.00582 114.412 7.77313C114.412 7.02577 114.338 6.54316 114.235 6.26978C114.215 6.21722 114.196 6.17925 114.181 6.15242C114.151 6.17631 114.11 6.21364 114.057 6.27135C113.888 6.4564 113.681 6.76855 113.441 7.24005C112.992 8.14656 112.542 9.45183 112.096 11.1773C111.81 12.3388 111.553 13.5935 111.327 14.9418C112.148 14.0339 112.797 13.0659 113.278 12.0387ZM111.147 16.0731C110.902 16.3104 110.645 16.5431 110.377 16.7712C110.424 16.4286 110.473 16.0912 110.524 15.7589C110.787 14.0421 111.096 12.4625 111.452 11.0203C111.903 9.2728 112.368 7.91656 112.846 6.95155C113.35 5.96045 113.801 5.4649 114.2 5.4649C114.784 5.4649 115.076 6.23431 115.076 7.77311C115.076 9.12935 114.677 10.6421 113.881 12.3113C113.243 13.6726 112.332 14.9266 111.147 16.0731Z" fill="black"/>
<path fill-rule="evenodd" clip-rule="evenodd" d="M94.4836 31.7801C91.0308 35.4944 86.1023 37.8182 80.631 37.8182C70.1878 37.8182 61.7219 29.3523 61.7219 18.9091C61.7219 8.46589 70.1878 0 80.631 0C91.0742 0 99.54 8.46589 99.54 18.9091C99.54 21.7894 98.8961 24.5192 97.7442 26.9625C97.5629 26.895 97.3716 26.8457 97.1722 26.8172C96.4074 26.708 95.7011 26.4286 95.1866 25.9914C94.724 25.5982 94.2744 24.9639 94.1294 23.8006C93.9199 22.1202 94.8195 21.0781 95.3194 20.7608C96.5974 19.9496 96.9758 18.256 96.1646 16.978C95.3534 15.7 93.6598 15.3216 92.3818 16.1328C90.4194 17.3784 88.2888 20.24 88.6568 24.1751C88.5526 24.2173 88.45 24.2664 88.3493 24.3226C86.8888 25.1368 86.0646 25.5706 85.109 25.8793C84.1647 26.1844 82.9646 26.4044 80.8061 26.5585C76.6303 26.8565 73.4484 25.526 71.4069 23.4886C70.3355 22.4193 68.6001 22.421 67.5308 23.4924C66.4615 24.5638 66.4633 26.2992 67.5347 27.3685C70.8137 30.641 75.6045 32.4252 81.1964 32.0261C83.5496 31.8582 85.247 31.5953 86.7942 31.0954C88.2266 30.6326 89.4201 29.9986 90.7319 29.2699C91.012 29.5951 91.3148 29.8946 91.6369 30.1683C92.5268 30.9246 93.5114 31.4408 94.4836 31.7801Z" fill="#FFBB55"/>
</svg>
