<svg width="287" height="110" viewBox="0 0 287 110" fill="none" xmlns="http://www.w3.org/2000/svg">
<path d="M10.17 103.968C7.758 102.726 6.228 100.494 6.228 97.1098V96.6958H9.324V95.0218H0.81V96.6958H4.014V97.1278C4.014 100.494 2.7 102.978 0 104.418L1.26 105.984C3.132 105.066 4.752 102.924 5.13 101.304C5.616 102.852 7.578 104.886 9 105.606L10.17 103.968ZM13.41 109.422V93.3838H11.304V109.422H13.41Z" fill="black"/>
<path d="M28.9662 105.012V93.3838H26.8782V105.012H28.9662ZM29.3262 108.99V107.334H20.3262V103.86H18.2022V108.99H29.3262ZM16.2222 98.5318C16.2222 100.836 17.9322 102.474 20.5602 102.474C23.2062 102.474 24.8982 100.836 24.8982 98.5318C24.8982 96.2638 23.2062 94.5718 20.5602 94.5718C17.9322 94.5718 16.2222 96.2638 16.2222 98.5318ZM18.3822 98.5318C18.3822 97.3078 19.2102 96.3718 20.5602 96.3718C21.9462 96.3718 22.7562 97.3078 22.7562 98.5318C22.7562 99.8098 21.9462 100.746 20.5602 100.746C19.2102 100.746 18.3822 99.8098 18.3822 98.5318Z" fill="black"/>
<path d="M44.0904 98.7838V97.1098H35.3244V95.3278H43.9644V93.6538H33.2184V98.7838H44.0904ZM45.7824 101.466V99.7738H31.2924V101.466H45.7824ZM44.4504 109.35V107.622H35.2344V106.686H43.8744V102.546H33.0384V104.202H41.7684V105.174H33.1464V109.35H44.4504Z" fill="black"/>
<path d="M61.6807 101.682V99.9538H59.5567V93.3838H57.4687V109.422H59.5567V101.682H61.6807ZM56.6947 105.66L56.5327 104.058C55.2547 104.22 53.7607 104.328 51.7987 104.436V100.008H49.7827V104.526C48.7027 104.544 47.6407 104.544 46.4887 104.544L46.7587 106.254C48.0007 106.254 49.3147 106.218 50.9707 106.146C52.8427 106.038 55.2007 105.858 56.6947 105.66ZM55.9567 95.1298H47.4967V96.8218H53.8147C53.8147 98.4778 53.7067 100.494 53.4007 101.916L55.4167 102.132C55.7947 100.44 55.9567 98.2438 55.9567 95.1298Z" fill="black"/>
<path d="M79.8234 106.362C79.8234 104.508 77.7894 103.302 74.2614 103.302C70.7154 103.302 68.6634 104.508 68.6634 106.362C68.6634 108.216 70.7154 109.422 74.2614 109.422C77.7894 109.422 79.8234 108.216 79.8234 106.362ZM81.6594 102.078V100.404H74.7654V97.6138H72.6594V100.404H67.1694V102.078H81.6594ZM79.7874 93.9598H68.8254V95.6158H77.6814C77.6814 97.3078 77.5194 98.2618 77.2494 99.3418C77.9334 99.4138 78.6174 99.5218 79.2834 99.6118C79.5714 98.2978 79.7874 96.9478 79.7874 93.9598ZM77.6814 106.38C77.6814 107.28 76.3494 107.748 74.2614 107.748C72.1554 107.748 70.8414 107.28 70.8414 106.38C70.8414 105.444 72.1554 104.994 74.2614 104.994C76.3494 104.994 77.6814 105.444 77.6814 106.38Z" fill="black"/>
<path d="M95.6676 97.6678C95.6676 95.5618 93.4356 94.1218 89.9616 94.1218C86.5056 94.1218 84.2736 95.5618 84.2736 97.6678C84.2736 99.7918 86.5056 101.232 89.9616 101.232C93.4356 101.232 95.6676 99.7918 95.6676 97.6678ZM88.2516 109.404V104.058H91.6536V109.404H93.7596V104.058H97.2336V102.384H82.7436V104.058H86.1456V109.404H88.2516ZM93.4716 97.6678C93.4716 98.7298 92.1216 99.5398 89.9616 99.5398C87.7836 99.5398 86.4516 98.7298 86.4516 97.6678C86.4516 96.6058 87.7836 95.8138 89.9616 95.8138C92.1216 95.8138 93.4716 96.6058 93.4716 97.6678Z" fill="black"/>
<path d="M107.552 98.8738V97.1998H98.2458V98.8738H107.552ZM100.496 96.0838H105.446V94.4278H100.496V96.0838ZM110.864 93.3838H108.74V109.422H110.864V101.628H113.096V99.8818H110.864V93.3838ZM99.0378 102.888C99.0378 104.922 100.604 106.344 102.908 106.344C105.212 106.344 106.778 104.85 106.778 102.888C106.778 100.872 105.212 99.4318 102.908 99.4318C100.604 99.4318 99.0378 100.926 99.0378 102.888ZM101.09 102.888C101.09 101.826 101.864 101.124 102.908 101.124C103.952 101.124 104.726 101.826 104.726 102.888C104.726 103.932 104.078 104.634 102.908 104.634C101.846 104.634 101.09 103.932 101.09 102.888Z" fill="black"/>
<path d="M128.382 102.978V101.286H113.892V102.978H128.382ZM126.6 99.4858V97.8118H117.942V93.9058H115.836V99.4858H126.6ZM126.708 108.99V107.316H117.834V104.256H115.746V108.99H126.708Z" fill="black"/>
<path d="M149.027 99.3058V97.5778H146.741V93.3838H144.617V103.86H146.741V99.3058H149.027ZM142.187 101.772V94.5898H134.663V101.772H142.187ZM140.099 100.152H136.769V96.2278H140.099V100.152ZM147.875 107.946C145.157 107.514 142.781 105.858 142.781 103.662V103.104H140.603V103.662C140.603 105.858 138.245 107.586 135.455 107.91L136.427 109.602C138.695 109.224 140.963 107.712 141.683 106.2C142.439 107.694 144.761 109.224 146.867 109.602L147.875 107.946Z" fill="black"/>
<path d="M163.053 109.224V102.834H160.929V104.418H154.593V102.87H152.469V109.224H163.053ZM150.489 95.9938H153.693C153.513 98.2078 152.019 99.8458 149.859 100.62L151.119 102.276C152.685 101.718 154.341 100.26 154.809 98.6758C155.529 100.188 157.059 101.34 158.265 101.826L159.417 100.17C157.707 99.6298 156.141 98.1718 155.889 95.9938H158.949V94.3018H150.489V95.9938ZM163.035 102.024V93.3838H160.929V102.024H163.035ZM160.929 107.55H154.593V106.056H160.929V107.55Z" fill="black"/>
<path d="M178.609 109.422V93.3838H176.503V109.422H178.609ZM174.883 98.8018V97.1278H165.541V98.8018H174.883ZM167.791 96.0838H172.741V94.4098H167.791V96.0838ZM166.405 102.87C166.405 104.922 168.007 106.326 170.311 106.326C172.651 106.326 174.235 104.85 174.235 102.87C174.235 100.872 172.651 99.4138 170.311 99.4138C168.007 99.4138 166.405 100.926 166.405 102.87ZM168.493 102.87C168.493 101.808 169.249 101.106 170.311 101.106C171.409 101.106 172.183 101.808 172.183 102.87C172.183 103.932 171.517 104.634 170.311 104.634C169.231 104.634 168.493 103.932 168.493 102.87Z" fill="black"/>
<path d="M195.407 107.334V105.66H180.917V107.334H195.407ZM195.101 100.764C192.653 100.35 189.269 98.2438 189.269 95.4178V94.3558H187.073V95.4178C187.073 98.2618 183.887 100.386 181.259 100.764L182.249 102.474C184.463 101.988 187.325 100.278 188.153 98.1178C189.071 100.224 191.843 101.898 194.039 102.402L195.101 100.764Z" fill="black"/>
<path d="M209.326 103.014V101.34H200.434V99.6118H208.642V97.9558H200.434V96.1738H209.182V94.4998H198.328V103.014H202.648V105.75H196.492V107.406H210.982V105.75H204.754V103.014H209.326Z" fill="black"/>
<path d="M223.226 93.3838V109.422H225.314V93.3838H223.226ZM221.822 103.554C219.77 103.932 216.584 104.022 215.054 104.022V100.764H220.292V94.7518H212.894V96.4258H218.168V99.0898H212.966V105.75H214.658C217.376 105.75 220.364 105.57 222.056 105.228L221.822 103.554Z" fill="black"/>
<path d="M246.013 109.224V102.762H243.889V104.436H237.319V102.798H235.177V109.224H246.013ZM239.857 97.8658C239.857 95.9758 238.471 94.2298 236.203 94.2298C233.971 94.2298 232.585 95.9758 232.585 97.8478C232.585 99.7558 233.971 101.484 236.221 101.484C238.489 101.484 239.857 99.7558 239.857 97.8658ZM246.013 102.042V93.3838H243.997V96.9118H242.773V93.6718H240.811V101.898H242.773V98.6038H243.997V102.042H246.013ZM237.895 97.8478C237.895 98.9818 237.175 99.7738 236.203 99.7738C235.285 99.7738 234.529 98.9818 234.529 97.8478C234.529 96.7318 235.285 95.9398 236.203 95.9398C237.175 95.9398 237.895 96.7318 237.895 97.8478ZM243.889 107.55H237.319V106.056H243.889V107.55Z" fill="black"/>
<path d="M247.925 109.692H249.617L250.913 106.056H248.645L247.925 109.692Z" fill="black"/>
<path d="M266.549 97.5598C266.549 95.5798 264.875 94.1398 262.355 94.1398C259.853 94.1398 258.197 95.5798 258.197 97.5598C258.197 99.4858 259.853 100.89 262.355 100.89C264.803 100.89 266.549 99.4858 266.549 97.5598ZM270.545 93.3838H268.457V109.422H270.545V93.3838ZM263.471 108.954V103.536C265.001 103.446 266.603 103.32 267.791 103.158L267.611 101.538C265.343 101.772 261.149 102.024 257.063 102.024L257.369 103.752C258.557 103.752 259.799 103.716 261.329 103.644V108.954H263.471ZM264.443 97.5418C264.443 98.4958 263.615 99.1618 262.355 99.1618C261.149 99.1618 260.303 98.4958 260.303 97.5418C260.303 96.5698 261.167 95.8498 262.355 95.8498C263.579 95.8498 264.443 96.5698 264.443 97.5418Z" fill="black"/>
<path d="M286.011 103.878V93.3838H283.923V103.878H286.011ZM273.195 98.3878C273.195 100.674 274.905 102.312 277.533 102.312C280.161 102.312 281.889 100.674 281.889 98.3878C281.889 96.1198 280.161 94.3198 277.533 94.3198C274.905 94.3198 273.195 96.1198 273.195 98.3878ZM275.301 98.3698C275.301 97.0918 276.111 96.0658 277.533 96.0658C278.883 96.0658 279.747 97.0378 279.747 98.3698C279.747 99.6478 278.883 100.566 277.533 100.566C276.111 100.566 275.301 99.6478 275.301 98.3698ZM286.821 107.928C284.121 107.496 281.727 105.858 281.727 103.644V103.086H279.567V103.644C279.567 105.858 277.191 107.568 274.401 107.892L275.391 109.584C277.641 109.206 279.927 107.694 280.611 106.182C281.385 107.676 283.707 109.224 285.831 109.584L286.821 107.928Z" fill="black"/>
<path d="M127.652 26.0724C128.492 26.0724 129.094 26.2517 129.459 26.6103C129.861 26.969 130.061 27.4352 130.061 28.009C130.061 28.9414 129.769 29.7662 129.185 30.4834C128.638 31.2007 127.762 31.5772 126.557 31.6131C123.674 31.649 121.082 31.4338 118.782 30.9676C116.227 36.311 113.143 40.7579 109.529 44.3083C105.952 47.8228 102.411 49.58 98.9069 49.58C95.6947 49.58 93.2856 47.9124 91.6795 44.5772C90.0734 41.2062 89.1609 36.7055 88.9419 31.0752C86.7517 37.3152 84.2696 41.9593 81.4954 45.0076C78.7578 48.0559 75.8376 49.58 72.7349 49.58C69.2307 49.58 66.5843 47.4462 64.7957 43.1786C63.0071 38.8752 62.1128 33.1014 62.1128 25.8572C62.1128 20.5855 62.5873 14.7938 63.5364 8.48207C63.7919 6.68896 64.2482 5.45172 64.9052 4.77034C65.5987 4.0531 66.6756 3.69448 68.1356 3.69448C69.2307 3.69448 70.0703 3.92758 70.6543 4.39379C71.2748 4.86 71.5851 5.72069 71.5851 6.97586C71.5851 7.2269 71.5486 7.71103 71.4756 8.42827C70.3805 15.78 69.833 22.0379 69.833 27.2021C69.833 32.0076 70.2528 35.7193 71.0923 38.3372C71.9319 40.9552 73.0634 42.2641 74.487 42.2641C75.7646 42.2641 77.2977 40.9552 79.0863 38.3372C80.9114 35.6834 82.7182 31.7745 84.5068 26.6103C86.2955 21.4103 87.8103 15.2241 89.0514 8.05172C89.3434 6.40207 89.8727 5.27241 90.6392 4.66276C91.4422 4.01724 92.5191 3.69448 93.8696 3.69448C95.0012 3.69448 95.8225 3.94552 96.3335 4.44758C96.8811 4.91379 97.1548 5.63103 97.1548 6.59931C97.1548 7.1731 97.1183 7.62138 97.0453 7.94414C96.0233 13.7897 95.5122 19.6352 95.5122 25.4807C95.5122 29.4614 95.64 32.6352 95.8955 35.0021C96.1875 37.369 96.7168 39.18 97.4833 40.4352C98.2864 41.6545 99.4362 42.2641 100.933 42.2641C102.685 42.2641 104.638 40.9731 106.791 38.391C108.945 35.7731 110.916 32.5276 112.705 28.6545C110.478 27.2917 108.799 25.5345 107.667 23.3828C106.536 21.1952 105.97 18.6848 105.97 15.8517C105.97 13.0186 106.408 10.6338 107.284 8.69724C108.197 6.72483 109.42 5.25448 110.953 4.28621C112.522 3.31793 114.256 2.83379 116.154 2.83379C118.49 2.83379 120.334 3.65862 121.684 5.30828C123.071 6.95793 123.765 9.21724 123.765 12.0862C123.765 16.1386 122.871 20.6393 121.082 25.5883C122.944 25.911 125.134 26.0724 127.652 26.0724ZM111.5 15.4752C111.5 18.9897 112.65 21.5897 114.95 23.2752C116.373 19.2586 117.085 15.9414 117.085 13.3234C117.085 11.8172 116.884 10.7234 116.483 10.0421C116.081 9.32482 115.534 8.9662 114.84 8.9662C113.855 8.9662 113.052 9.54 112.431 10.6876C111.81 11.7993 111.5 13.3952 111.5 15.4752Z" fill="black"/>
<path d="M144.341 38.929C144.815 38.929 145.18 39.1441 145.436 39.5745C145.728 40.0048 145.874 40.5966 145.874 41.3497C145.874 42.6407 145.564 43.7524 144.943 44.6848C143.921 46.2269 142.571 47.4283 140.891 48.289C139.249 49.1497 137.278 49.58 134.978 49.58C131.474 49.58 128.755 48.5579 126.82 46.5138C124.885 44.4338 123.918 41.6365 123.918 38.1221C123.918 35.6476 124.447 33.3524 125.506 31.2366C126.564 29.0848 128.024 27.3814 129.886 26.1262C131.784 24.871 133.92 24.2434 136.292 24.2434C138.409 24.2434 140.107 24.871 141.384 26.1262C142.662 27.3455 143.301 29.0131 143.301 31.129C143.301 33.6034 142.388 35.7372 140.563 37.5303C138.774 39.2876 135.708 40.6862 131.364 41.7262C132.24 43.3759 133.719 44.2007 135.799 44.2007C137.296 44.2007 138.519 43.86 139.468 43.1786C140.453 42.4972 141.585 41.3497 142.863 39.7359C143.301 39.1979 143.793 38.929 144.341 38.929ZM135.361 29.5152C134.011 29.5152 132.861 30.2862 131.912 31.8283C130.999 33.3703 130.543 35.2352 130.543 37.4228V37.5303C132.697 37.0283 134.394 36.2752 135.635 35.271C136.876 34.2669 137.497 33.1014 137.497 31.7745C137.497 31.0931 137.296 30.5552 136.895 30.1607C136.529 29.7303 136.018 29.5152 135.361 29.5152Z" fill="black"/>
<path d="M212.421 29.3538C212.348 31.1469 212.311 32.5455 212.311 33.5497C212.311 36.1317 212.439 38.1579 212.694 39.6283C212.986 41.0628 213.443 42.1028 214.063 42.7483C214.72 43.3579 215.615 43.6628 216.746 43.6628C217.33 43.6628 218.024 43.4834 218.827 43.1248C219.63 42.7662 220.36 42.3 221.017 41.7262C221.418 41.3676 221.82 41.1883 222.222 41.1883C222.66 41.1883 223.006 41.4393 223.262 41.9414C223.554 42.4076 223.7 42.9814 223.7 43.6628C223.7 44.3441 223.554 45.0076 223.262 45.6531C223.006 46.2986 222.605 46.8366 222.057 47.2669C220.159 48.809 218.006 49.58 215.596 49.58C212.129 49.58 209.592 48.1634 207.986 45.3303C206.38 42.4614 205.577 38.7317 205.577 34.1414C205.577 32.5634 205.631 30.9676 205.741 29.3538H201.78C200.685 29.3538 199.937 29.1565 199.535 28.7621C199.17 28.3676 198.988 27.74 198.988 26.8793C198.988 24.871 199.809 23.8669 201.452 23.8669H206.398C207.018 19.9221 207.967 16.3179 209.245 13.0545C210.523 9.79103 212.056 7.19103 213.844 5.25448C215.669 3.31793 217.622 2.34966 219.703 2.34966C221.236 2.34966 222.441 3.0131 223.317 4.34C224.193 5.6669 224.631 7.33448 224.631 9.34276C224.631 14.9014 222.258 19.7428 217.513 23.8669H223.645C224.229 23.8669 224.649 23.9924 224.904 24.2434C225.16 24.4945 225.288 24.9607 225.288 25.6421C225.288 28.1165 223.225 29.3538 219.101 29.3538H212.421ZM218.225 7.51379C217.677 7.51379 217.056 8.19517 216.363 9.55793C215.706 10.8848 215.067 12.7497 214.447 15.1524C213.863 17.5193 213.37 20.1552 212.968 23.06C215.122 21.231 216.728 19.1869 217.786 16.9276C218.882 14.6324 219.429 12.5524 219.429 10.6876C219.429 8.57172 219.028 7.51379 218.225 7.51379Z" fill="black"/>
<path fill-rule="evenodd" clip-rule="evenodd" d="M128.376 26.1259C128.781 26.1924 129.105 26.3208 129.346 26.5112C129.522 26.3785 129.702 26.2501 129.886 26.1262C129.904 26.1144 129.922 26.1026 129.94 26.0909C129.986 26.0606 130.033 26.0307 130.079 26.0012C130.09 25.9945 130.1 25.9879 130.111 25.9813C131.952 24.8227 134.013 24.2434 136.292 24.2434C138.409 24.2434 140.107 24.871 141.384 26.1262C142.662 27.3455 143.301 29.0131 143.301 31.129C143.301 33.6034 142.388 35.7372 140.563 37.5303C138.902 39.1618 136.141 40.4841 132.278 41.4974C131.98 41.5755 131.675 41.6518 131.364 41.7262C131.519 42.0176 131.693 42.2833 131.885 42.5233C132.782 43.6416 134.086 44.2007 135.799 44.2007C137.296 44.2007 138.519 43.86 139.468 43.1786C140.453 42.4972 141.585 41.3497 142.863 39.7359C143.301 39.1979 143.793 38.929 144.341 38.929C144.815 38.929 145.18 39.1441 145.436 39.5745C145.728 40.0048 145.874 40.5966 145.874 41.3497C145.874 42.6407 145.564 43.7524 144.943 44.6848C143.921 46.2269 142.571 47.4283 140.891 48.289C139.249 49.1497 137.278 49.58 134.978 49.58C131.474 49.58 128.755 48.5579 126.82 46.5138C124.885 44.4338 123.918 41.6365 123.918 38.1221C123.918 36.1332 124.26 34.2603 124.944 32.5031C125.06 32.203 125.187 31.9063 125.324 31.6129C124.991 31.6085 124.662 31.6006 124.337 31.5891C122.327 31.518 120.475 31.3108 118.782 30.9676C116.227 36.311 113.143 40.7579 109.529 44.3083C105.952 47.8228 102.411 49.58 98.9069 49.58C95.6947 49.58 93.2856 47.9124 91.6795 44.5772C90.2972 41.6759 89.4286 37.9378 89.0738 33.363C89.0163 32.6223 88.9724 31.8597 88.9419 31.0752C88.6816 31.8166 88.4172 32.5355 88.1487 33.2319C86.1577 38.3963 83.94 42.3215 81.4954 45.0076C78.7578 48.0559 75.8376 49.58 72.7349 49.58C69.2307 49.58 66.5843 47.4462 64.7957 43.1786C63.0071 38.8752 62.1128 33.1014 62.1128 25.8572C62.1128 20.5855 62.5873 14.7938 63.5364 8.48207C63.7919 6.68896 64.2482 5.45172 64.9052 4.77034C65.5987 4.0531 66.6756 3.69448 68.1356 3.69448C69.2307 3.69448 70.0703 3.92758 70.6543 4.39379C71.2748 4.86 71.5851 5.72069 71.5851 6.97586C71.5851 7.2269 71.5486 7.71103 71.4756 8.42827C70.3805 15.78 69.833 22.0379 69.833 27.2021C69.833 32.0076 70.2528 35.7193 71.0923 38.3372C71.9319 40.9552 73.0634 42.2641 74.487 42.2641C75.7646 42.2641 77.2977 40.9552 79.0863 38.3372C80.9114 35.6834 82.7182 31.7745 84.5068 26.6103C86.2955 21.4103 87.8103 15.2241 89.0514 8.05172C89.3434 6.40207 89.8727 5.27241 90.6392 4.66276C91.4422 4.01724 92.5191 3.69448 93.8696 3.69448C95.0012 3.69448 95.8225 3.94552 96.3335 4.44758C96.8811 4.91379 97.1548 5.63103 97.1548 6.59931C97.1548 7.1731 97.1183 7.62138 97.0453 7.94414C96.0233 13.7897 95.5122 19.6352 95.5122 25.4807C95.5122 29.4614 95.64 32.6352 95.8955 35.0021C96.1875 37.369 96.7168 39.18 97.4833 40.4352C98.2864 41.6545 99.4362 42.2641 100.933 42.2641C102.685 42.2641 104.638 40.9731 106.791 38.391C108.945 35.7731 110.916 32.5276 112.705 28.6545C110.478 27.2917 108.799 25.5345 107.667 23.3828C106.536 21.1952 105.97 18.6848 105.97 15.8517C105.97 13.0186 106.408 10.6338 107.284 8.69724C108.197 6.72483 109.42 5.25448 110.953 4.28621C112.522 3.31793 114.256 2.83379 116.154 2.83379C118.49 2.83379 120.334 3.65862 121.684 5.30828C123.071 6.95793 123.765 9.21724 123.765 12.0862C123.765 15.9031 122.971 20.1177 121.385 24.7299C121.287 25.0145 121.186 25.3006 121.082 25.5883C121.379 25.6398 121.685 25.6872 121.999 25.7305C123.651 25.9585 125.536 26.0724 127.652 26.0724C127.917 26.0724 128.158 26.0903 128.376 26.1259ZM122.301 24.8663C123.86 25.0714 125.642 25.1759 127.652 25.1759C128.229 25.1759 128.79 25.2495 129.281 25.4473C129.311 25.4271 129.34 25.407 129.37 25.387L129.376 25.3824C131.431 24.0239 133.745 23.3469 136.292 23.3469C138.604 23.3469 140.547 24.0388 142.025 25.4878C143.512 26.9099 144.213 28.8277 144.213 31.129C144.213 33.8478 143.2 36.2078 141.208 38.1643C139.439 39.9023 136.621 41.2486 132.871 42.268C133.087 42.4823 133.324 42.6593 133.581 42.8025C134.155 43.1228 134.882 43.3042 135.799 43.3042C137.156 43.3042 138.175 42.9966 138.929 42.4548L138.936 42.45L138.943 42.4454C139.82 41.8391 140.886 40.7722 142.142 39.1855L142.15 39.1758C142.708 38.4901 143.441 38.0324 144.341 38.0324C145.157 38.0324 145.804 38.4308 146.21 39.0994C146.627 39.7262 146.787 40.5062 146.787 41.3497C146.787 42.786 146.44 44.0741 145.708 45.1741C144.6 46.8455 143.132 48.1508 141.318 49.0818C139.516 50.025 137.391 50.4766 134.978 50.4766C131.284 50.4766 128.298 49.392 126.152 47.1243L126.146 47.1186C124.022 44.8352 123.005 41.8027 123.005 38.1221C123.005 36.1362 123.33 34.2511 123.982 32.4725C122.322 32.4014 120.761 32.2376 119.302 31.9793C116.77 37.1227 113.73 41.4488 110.174 44.9423C106.502 48.55 102.743 50.4766 98.9069 50.4766C97.1304 50.4766 95.5376 50.0122 94.1653 49.0623C92.8012 48.1181 91.7069 46.7306 90.8546 44.9607L90.853 44.9574C89.5992 42.3257 88.7662 39.0726 88.3329 35.2191C86.4903 39.6383 84.4443 43.1117 82.1777 45.603C79.3282 48.7749 76.1784 50.4766 72.7349 50.4766C70.7771 50.4766 69.0335 49.8745 67.543 48.6727C66.068 47.4835 64.8832 45.7422 63.9518 43.52L63.9508 43.5176C62.0996 39.0635 61.2002 33.1598 61.2002 25.8573C61.2002 20.5346 61.6791 14.6995 62.6331 8.35438C62.8943 6.52342 63.3809 5.04747 64.2427 4.15377L64.2436 4.15286C65.1745 3.19011 66.539 2.79795 68.1356 2.79795C69.3425 2.79795 70.4142 3.0521 71.2195 3.68986C72.1696 4.41103 72.4976 5.62333 72.4976 6.97588C72.4976 7.27858 72.456 7.80626 72.3836 8.51751L72.3815 8.53787L72.3785 8.55812C71.2873 15.8838 70.7455 22.0957 70.7455 27.2021C70.7455 31.9739 71.1645 35.5789 71.9626 38.0678C72.3652 39.323 72.8122 40.177 73.2662 40.7021C73.7017 41.2059 74.1032 41.3676 74.487 41.3676C74.8081 41.3676 75.3032 41.1975 75.9964 40.6057C76.6776 40.0241 77.4564 39.1142 78.3285 37.8376L78.3301 37.8353C80.0889 35.2779 81.8647 31.4555 83.6427 26.3222C85.4117 21.1787 86.9163 15.0409 88.1517 7.90149L88.1523 7.89813C88.4568 6.17783 89.0389 4.78315 90.0632 3.96738C91.0727 3.15677 92.3736 2.79795 93.8696 2.79795C95.0976 2.79795 96.1986 3.06388 96.9555 3.79105C97.7501 4.48214 98.0673 5.48073 98.0673 6.59933C98.0673 7.18739 98.0317 7.70296 97.9412 8.11579C96.9301 13.9053 96.4247 19.6934 96.4247 25.4807C96.4247 29.444 96.5521 32.5799 96.8022 34.9009C97.0864 37.1993 97.5905 38.8615 98.2578 39.9608C98.8894 40.9123 99.7463 41.3676 100.933 41.3676C102.242 41.3676 103.956 40.375 106.084 37.825C108.049 35.4359 109.872 32.4914 111.547 28.98C109.52 27.6025 107.95 25.8734 106.857 23.7943L106.854 23.789C105.648 21.4574 105.057 18.8041 105.057 15.8517C105.057 12.9333 105.508 10.416 106.45 8.33314L106.453 8.32625C107.423 6.23016 108.75 4.61151 110.459 3.53207L110.467 3.5269C112.186 2.46668 114.089 1.93726 116.154 1.93726C118.738 1.93726 120.852 2.86402 122.391 4.74164C123.951 6.59899 124.677 9.08245 124.677 12.0862C124.677 15.9807 123.877 20.2434 122.301 24.8663ZM115.688 10.4828L115.683 10.4742C115.403 9.97469 115.128 9.86278 114.84 9.86278C114.307 9.86278 113.761 10.1379 113.237 11.1082L113.231 11.1187C112.717 12.0394 112.413 13.4601 112.413 15.4752C112.413 18.2037 113.141 20.2445 114.524 21.7034C115.636 18.3135 116.172 15.5273 116.172 13.3235C116.172 11.8549 115.969 10.9604 115.693 10.4913L115.688 10.4828ZM114.201 22.657C114.436 22.8752 114.685 23.0812 114.95 23.2752C115.057 22.9718 115.161 22.6724 115.26 22.377C116.477 18.7615 117.085 15.7436 117.085 13.3234C117.085 11.8172 116.884 10.7234 116.483 10.0421C116.081 9.32482 115.534 8.9662 114.84 8.9662C113.855 8.9662 113.052 9.54 112.431 10.6876C111.81 11.7993 111.5 13.3952 111.5 15.4752C111.5 18.5852 112.401 20.9792 114.201 22.657ZM136.22 30.7659L136.193 30.7347C136.029 30.5411 135.794 30.4117 135.361 30.4117C134.442 30.4117 133.546 30.9093 132.697 32.2856C132.03 33.4146 131.622 34.7612 131.497 36.3468C132.995 35.8902 134.171 35.2939 135.055 34.579C136.13 33.7092 136.584 32.7817 136.584 31.7745C136.584 31.2749 136.443 30.9852 136.249 30.7947L136.22 30.7659ZM131.456 37.2947C131.301 37.3389 131.143 37.3816 130.983 37.4228C130.838 37.4598 130.692 37.4957 130.543 37.5303V37.4228C130.543 37.144 130.551 36.8705 130.565 36.6023C130.667 34.7652 131.116 33.1738 131.912 31.8283C132.861 30.2862 134.011 29.5152 135.361 29.5152C136.018 29.5152 136.529 29.7303 136.895 30.1607C137.296 30.5552 137.497 31.0931 137.497 31.7745C137.497 33.1014 136.876 34.2669 135.635 35.271C134.575 36.1287 133.182 36.8033 131.456 37.2947ZM207.188 45.7666L207.186 45.7624C205.482 42.7185 204.664 38.8254 204.664 34.1414C204.664 32.8557 204.7 31.5586 204.772 30.2504H201.78C200.642 30.2504 199.565 30.059 198.89 29.396L198.875 29.381L198.86 29.3652C198.272 28.7299 198.075 27.8335 198.075 26.8793C198.075 25.7787 198.296 24.7872 198.892 24.0584C199.519 23.2922 200.43 22.9704 201.452 22.9704H205.62C206.249 19.2652 207.172 15.8515 208.393 12.7327C209.698 9.3986 211.283 6.69317 213.168 4.65203L213.175 4.64535C215.119 2.582 217.299 1.45312 219.703 1.45312C221.563 1.45312 223.048 2.2857 224.082 3.85213C225.077 5.35888 225.543 7.20776 225.543 9.34278C225.543 14.4908 223.597 19.0409 219.778 22.9704H223.645C224.328 22.9704 225.043 23.1119 225.55 23.6095C226.078 24.1285 226.2 24.9165 226.2 25.6421C226.2 27.1757 225.533 28.4014 224.216 29.1911C222.973 29.9368 221.226 30.2504 219.101 30.2504H213.299C213.249 31.629 213.224 32.7277 213.224 33.5497C213.224 36.1044 213.35 38.0684 213.592 39.4649C213.866 40.805 214.268 41.6441 214.709 42.114C215.156 42.519 215.8 42.7662 216.746 42.7662C217.151 42.7662 217.71 42.6388 218.449 42.3087C219.168 41.9876 219.82 41.5715 220.408 41.0588C220.916 40.6057 221.525 40.2917 222.221 40.2917C223.099 40.2917 223.703 40.825 224.06 41.505C224.445 42.1359 224.612 42.8699 224.612 43.6628C224.612 44.4674 224.441 45.2482 224.104 45.9982C223.791 46.7788 223.298 47.438 222.633 47.9622C220.577 49.6311 218.221 50.4766 215.596 50.4766C213.734 50.4766 212.072 50.0954 210.642 49.2971C209.21 48.4974 208.062 47.3073 207.188 45.7666ZM222.057 47.2669C222.605 46.8366 223.006 46.2986 223.262 45.6531C223.554 45.0076 223.7 44.3441 223.7 43.6628C223.7 42.9814 223.554 42.4076 223.262 41.9414C223.006 41.4393 222.66 41.1883 222.222 41.1883C221.82 41.1883 221.418 41.3676 221.017 41.7262C220.36 42.3 219.63 42.7662 218.827 43.1248C218.024 43.4834 217.33 43.6628 216.746 43.6628C215.615 43.6628 214.72 43.3579 214.063 42.7483C213.443 42.1028 212.986 41.0628 212.694 39.6283C212.439 38.1579 212.311 36.1317 212.311 33.5497C212.311 32.5455 212.348 31.1469 212.421 29.3538H219.101C223.225 29.3538 225.288 28.1165 225.288 25.6421C225.288 24.9607 225.16 24.4945 224.904 24.2434C224.649 23.9924 224.229 23.8669 223.645 23.8669H217.513C217.852 23.5717 218.18 23.2729 218.495 22.9704C222.585 19.0461 224.631 14.5035 224.631 9.34276C224.631 7.33448 224.193 5.6669 223.317 4.34C222.441 3.0131 221.236 2.34966 219.703 2.34966C217.622 2.34966 215.669 3.31793 213.844 5.25448C212.056 7.19103 210.523 9.79103 209.245 13.0545C207.967 16.3179 207.018 19.9221 206.398 23.8669H201.452C199.809 23.8669 198.988 24.871 198.988 26.8793C198.988 27.74 199.17 28.3676 199.535 28.7621C199.937 29.1565 200.685 29.3538 201.78 29.3538H205.741C205.72 29.6533 205.702 29.9521 205.685 30.2504C205.613 31.5593 205.577 32.8563 205.577 34.1414C205.577 38.7317 206.38 42.4614 207.986 45.3303C209.592 48.1634 212.129 49.58 215.596 49.58C218.006 49.58 220.159 48.809 222.057 47.2669ZM216.958 16.5527L216.96 16.5471C218.018 14.3305 218.517 12.3826 218.517 10.6876C218.517 9.65999 218.416 8.9964 218.273 8.6205C218.245 8.54823 218.22 8.49602 218.199 8.45914C218.157 8.49198 218.101 8.54331 218.029 8.62266C217.797 8.8771 217.512 9.30631 217.181 9.95461C216.565 11.2011 215.945 12.9958 215.332 15.3684C214.938 16.9654 214.586 18.6906 214.275 20.5446C215.404 19.2961 216.296 17.9652 216.958 16.5527ZM214.028 22.1C213.691 22.4263 213.338 22.7463 212.968 23.06C213.033 22.5889 213.101 22.125 213.171 21.6681C213.532 19.3074 213.957 17.1355 214.447 15.1524C215.067 12.7497 215.706 10.8848 216.363 9.55793C217.056 8.19517 217.677 7.51379 218.225 7.51379C219.028 7.51379 219.429 8.57172 219.429 10.6876C219.429 12.5524 218.882 14.6324 217.786 16.9276C216.909 18.7994 215.657 20.5236 214.028 22.1Z" fill="black"/>
<path fill-rule="evenodd" clip-rule="evenodd" d="M191.86 42.8617C187.091 48.4539 179.994 52 172.068 52C157.709 52 146.068 40.3594 146.068 26C146.068 11.6406 157.709 0 172.068 0C186.428 0 198.068 11.6406 198.068 26C198.068 30.3293 197.01 34.4114 195.139 38.0019C194.988 37.9523 194.83 37.9152 194.668 37.892C193.475 37.7216 192.307 37.2786 191.417 36.5221C190.579 35.8097 189.839 34.7005 189.609 32.8538C189.265 30.0912 190.743 28.2955 191.714 27.6791C192.992 26.8679 193.371 25.1743 192.56 23.8963C191.748 22.6184 190.055 22.24 188.777 23.0511C186.293 24.6276 183.525 28.3581 184.17 33.5318C184.19 33.6928 184.212 33.8517 184.237 34.0085C183.877 34.0452 183.518 34.1543 183.182 34.3419C181.18 35.458 179.965 36.103 178.542 36.5627C177.131 37.0187 175.387 37.3293 172.383 37.5437C166.375 37.9724 161.699 36.0579 158.659 33.0249C157.588 31.9556 155.853 31.9573 154.783 33.0287C153.714 34.1001 153.716 35.8355 154.787 36.9048C159.064 41.1729 165.35 43.5412 172.773 43.0114C175.972 42.7831 178.213 42.4296 180.227 41.7788C182.23 41.1316 183.883 40.2271 185.851 39.1296C185.975 39.0605 186.092 38.9831 186.201 38.8986C186.691 39.5765 187.252 40.1762 187.867 40.6991C189.104 41.7502 190.496 42.4372 191.86 42.8617Z" fill="#FFBB55"/>
</svg>
