<svg width="18" height="18" viewBox="0 0 18 18" fill="none" xmlns="http://www.w3.org/2000/svg">
<path d="M6.88064 1.50115H3.16628C2.50324 1.50115 1.86751 1.76444 1.39873 2.23322C0.929836 2.70212 0.666504 3.33785 0.666504 4.00092V14.8337C0.666504 15.4967 0.929803 16.1324 1.39873 16.6012C1.86751 17.0701 2.50321 17.3334 3.16628 17.3334H14.2073C14.8702 17.3334 15.5061 17.0701 15.9749 16.6012C16.4438 16.1324 16.7071 15.4967 16.7071 14.8337V10.2507C16.7083 10.0148 16.6093 9.78958 16.4351 9.63078C16.2607 9.47181 16.0274 9.39436 15.7926 9.41732C15.582 9.44362 15.3888 9.54679 15.2498 9.70721C15.1109 9.86763 15.0364 10.0738 15.0406 10.286V14.8337C15.0406 15.0547 14.9528 15.2666 14.7966 15.4229C14.6402 15.5791 14.4284 15.6669 14.2074 15.6669H3.16631C2.9453 15.6669 2.73343 15.5791 2.57708 15.4229C2.42087 15.2666 2.33311 15.0547 2.33311 14.8337V4.00095C2.33311 3.77993 2.42087 3.56791 2.57708 3.41171C2.73343 3.25551 2.94529 3.1676 3.16631 3.1676H6.91598C7.15181 3.16876 7.37706 3.06995 7.53586 2.89558C7.69483 2.72135 7.77228 2.48784 7.74932 2.25315C7.72302 2.0426 7.61985 1.84921 7.45943 1.71027C7.29901 1.5715 7.09281 1.49693 6.88064 1.50115Z" fill="current"/>
<path fill-rule="evenodd" clip-rule="evenodd" d="M13.9998 5.66699C14.9203 5.66699 15.6665 4.9208 15.6665 4.00033C15.6665 3.07985 14.9203 2.33366 13.9998 2.33366C13.0794 2.33366 12.3332 3.07985 12.3332 4.00033C12.3332 4.9208 13.0794 5.66699 13.9998 5.66699ZM13.9998 7.33366C15.8408 7.33366 17.3332 5.84127 17.3332 4.00033C17.3332 2.15938 15.8408 0.666992 13.9998 0.666992C12.1589 0.666992 10.6665 2.15938 10.6665 4.00033C10.6665 5.84127 12.1589 7.33366 13.9998 7.33366Z" fill="current"/>
</svg>
