<svg width="124" height="124" viewBox="0 0 124 124" fill="none" xmlns="http://www.w3.org/2000/svg">
<mask id="mask0_189_159" style="mask-type:alpha" maskUnits="userSpaceOnUse" x="0" y="0" width="124" height="124">
<circle cx="62" cy="62" r="62" fill="#7F5FFF"/>
</mask>
<g mask="url(#mask0_189_159)">
<circle cx="62" cy="62" r="62" fill="#EBEBEB"/>
<path opacity="0.4" fill-rule="evenodd" clip-rule="evenodd" d="M110.856 64.3706C113.863 69.1084 112.461 75.3873 107.723 78.3949C107.335 78.641 106.255 79.6147 105.376 81.3435C104.549 82.9696 104.025 85.0251 104.32 87.3967C105.142 93.9914 109.201 95.0181 109.789 95.0425C115.396 95.2745 119.753 100.008 119.521 105.615C119.289 111.222 114.556 115.579 108.949 115.347C102.143 115.066 94.3066 111.304 89.221 103.821C83.1871 106.402 75.9565 108.507 66.2099 108.507C48.4326 108.507 32.1144 104.146 20.6283 92.7228C16.6492 88.7656 16.6314 82.332 20.5886 78.3529C24.5458 74.3738 30.9794 74.356 34.9585 78.3132C41.2014 84.5217 51.3668 88.1845 66.2099 88.1845C73.7645 88.1845 78.6971 86.4305 83.9875 83.8709C84.7398 73.1791 90.9775 64.9536 96.8316 61.2376M89.4547 87.2977C82.6913 90.7554 76.4744 93.6956 66.2099 93.6956C50.5685 93.6956 38.7359 89.8421 31.0724 82.2209C29.2514 80.41 26.3072 80.4181 24.4963 82.2391C22.6854 84.06 22.6935 87.0042 24.5145 88.8151C34.5775 98.8227 49.2259 102.996 66.2099 102.996C74.755 102.996 81.1164 101.238 86.5637 98.9615C88.3124 98.2307 89.9668 97.4464 91.5691 96.6496C91.9654 97.5859 92.4072 98.4693 92.8875 99.3007C96.9301 106.299 103.706 109.615 109.177 109.841C111.743 109.947 113.909 107.953 114.015 105.387C114.121 102.821 112.127 100.655 109.561 100.549C106.347 100.416 100.015 97.4108 98.8516 88.0784C97.9522 80.8633 102.077 75.4514 104.769 73.742C106.937 72.3657 107.579 69.4923 106.203 67.3241C104.827 65.156 101.953 64.5141 99.7851 65.8904C94.7611 69.0796 88.9443 77.0064 89.4547 87.2977ZM110.856 64.3706C107.848 59.6327 101.569 58.23 96.8316 61.2376Z" fill="white"/>
<path fill-rule="evenodd" clip-rule="evenodd" d="M106.203 67.3231C107.579 69.4912 106.937 72.3646 104.769 73.741C102.076 75.4503 97.9518 80.8623 98.8512 88.0773C100.015 97.4097 106.347 100.415 109.561 100.548C112.127 100.654 114.121 102.82 114.015 105.386C113.908 107.952 111.742 109.946 109.176 109.84C103.056 109.587 95.3011 105.466 91.5687 96.6485C84.975 99.9275 77.4976 102.995 66.2095 102.995C49.2255 102.995 34.5771 98.8216 24.5141 88.8141C22.6932 87.0031 22.685 84.0589 24.4959 82.238C26.3069 80.417 29.2511 80.4089 31.072 82.2198C38.7355 89.841 50.5681 93.6945 66.2095 93.6945C76.474 93.6945 82.6909 90.7544 89.4543 87.2967C88.9439 77.0053 94.7608 69.0785 99.7848 65.8893C101.953 64.513 104.826 65.1549 106.203 67.3231Z" fill="white"/>
<rect x="65.0293" y="60.3135" width="40" height="8" rx="4" transform="rotate(-45 65.0293 60.3135)" fill="#E4E4E4"/>
<rect width="40" height="8" rx="4" transform="matrix(-0.707107 -0.707107 -0.707107 0.707107 98.9409 60.3135)" fill="#E4E4E4"/>
<rect x="26.0293" y="60.3135" width="40" height="8" rx="4" transform="rotate(-45 26.0293 60.3135)" fill="#E4E4E4"/>
<rect width="40" height="8" rx="4" transform="matrix(-0.707107 -0.707107 -0.707107 0.707107 59.9409 60.3135)" fill="#E4E4E4"/>
</g>
</svg>
