<svg width="20" height="22" viewBox="0 0 20 22" fill="none" xmlns="http://www.w3.org/2000/svg">
<path fill-rule="evenodd" clip-rule="evenodd" d="M10 10C12.2091 10 14 8.20914 14 6C14 3.79086 12.2091 2 10 2C7.79086 2 6 3.79086 6 6C6 8.20914 7.79086 10 10 10ZM10 12C13.3137 12 16 9.31371 16 6C16 2.68629 13.3137 0 10 0C6.68629 0 4 2.68629 4 6C4 9.31371 6.68629 12 10 12Z" fill="current"/>
<path fill-rule="evenodd" clip-rule="evenodd" d="M4.61875 11.9197C2.30018 12.8219 1.03847 14.1725 0.469567 14.9542C0.112902 15.4443 0 16.0204 0 16.5183V22H20V16.5183C20 16.0204 19.8871 15.4443 19.5304 14.9542C18.9615 14.1725 17.6998 12.8219 15.3812 11.9197C14.7422 12.501 14.0086 12.9802 13.2063 13.3316C16.269 14.0185 17.6601 15.5845 18.111 16.2041C18.1406 16.2447 18.1818 16.3363 18.1818 16.5183V20H1.81818V16.5183C1.81818 16.3363 1.85943 16.2447 1.88897 16.2041C2.3399 15.5845 3.73105 14.0185 6.7937 13.3316C5.99139 12.9802 5.25782 12.501 4.61875 11.9197Z" fill="current"/>
</svg>
