<svg width="24" height="24" viewBox="0 0 24 24" fill="none" xmlns="http://www.w3.org/2000/svg">
<path d="M16.5792 13.9497H15.721L15.4168 13.6564C16.4814 12.418 17.1224 10.8102 17.1224 9.06118C17.1224 5.16124 13.9611 2 10.0612 2C6.16124 2 3 5.16124 3 9.06118C3 12.9611 6.16124 16.1224 10.0612 16.1224C11.8102 16.1224 13.418 15.4814 14.6564 14.4168L14.9497 14.721V15.5792L20.3814 21L22 19.3814L16.5792 13.9497V13.9497ZM10.0612 13.9497C7.3562 13.9497 5.17267 11.7662 5.17267 9.06118C5.17267 6.3562 7.3562 4.17267 10.0612 4.17267C12.7662 4.17267 14.9497 6.3562 14.9497 9.06118C14.9497 11.7662 12.7662 13.9497 10.0612 13.9497Z" fill="black"/>
</svg>
