<svg width="16" height="12" viewBox="0 0 16 12" fill="none" xmlns="http://www.w3.org/2000/svg">
<path fill-rule="evenodd" clip-rule="evenodd" d="M11.3965 6.63965C12.3928 7.31601 13.091 8.23238 13.091 9.4542V11.636H16.0001V9.4542C16.0001 7.86874 13.4038 6.93056 11.3965 6.63965Z" fill="black"/>
<path d="M5.81827 5.81819C7.42492 5.81819 8.72737 4.51574 8.72737 2.90909C8.72737 1.30245 7.42492 0 5.81827 0C4.21162 0 2.90918 1.30245 2.90918 2.90909C2.90918 4.51574 4.21162 5.81819 5.81827 5.81819Z" fill="black"/>
<path fill-rule="evenodd" clip-rule="evenodd" d="M10.1821 5.81819C11.7894 5.81819 13.0912 4.51637 13.0912 2.90909C13.0912 1.30182 11.7894 0 10.1821 0C9.8403 0 9.5203 0.0727272 9.21484 0.174545C9.81848 0.923637 10.1821 1.87636 10.1821 2.90909C10.1821 3.94182 9.81848 4.89455 9.21484 5.64364C9.5203 5.74546 9.8403 5.81819 10.1821 5.81819Z" fill="black"/>
<path fill-rule="evenodd" clip-rule="evenodd" d="M5.81819 6.5459C3.87637 6.5459 0 7.52044 0 9.45499V11.6368H11.6364V9.45499C11.6364 7.52044 7.76001 6.5459 5.81819 6.5459Z" fill="black"/>
</svg>
