<svg width="312" height="284" viewBox="0 0 312 284" fill="none" xmlns="http://www.w3.org/2000/svg">
<path fill-rule="evenodd" clip-rule="evenodd" d="M274.289 115.093C278.287 118.769 278.548 124.99 274.872 128.989C268.724 135.676 262.029 151.072 269.435 169.304C274.25 181.16 281.424 187.726 288.948 191.292C296.693 194.963 305.486 195.758 313.591 194.781C318.984 194.131 323.882 197.976 324.532 203.368C325.181 208.761 321.337 213.659 315.944 214.309C305.132 215.612 292.415 214.702 280.524 209.066C275.411 206.642 270.569 203.398 266.183 199.234C240.055 220.886 219.034 235.275 182.518 246.933C130.617 263.501 83.6209 255.948 47.5878 235.524C42.8626 232.845 41.2034 226.844 43.8818 222.119C46.5601 217.393 52.5618 215.734 57.287 218.412C88.5613 236.14 129.875 243.091 176.536 228.195C210.078 217.487 228.924 204.62 254.365 183.481C253.234 181.347 252.18 179.09 251.211 176.705C240.525 150.396 249.894 127.096 260.393 115.677C264.069 111.678 270.29 111.417 274.289 115.093Z" fill="black"/>
<path d="M277.773 165.917C271.863 151.365 277.353 139.588 281.498 135.08C288.538 127.423 288.037 115.508 280.38 108.468L280.38 108.468C272.722 101.427 260.808 101.928 253.767 109.585C241.286 123.161 230.681 150.076 242.873 180.092C242.993 180.389 243.115 180.684 243.238 180.977C221 199.033 203.509 210.137 173.799 219.621C129.535 233.752 90.8219 227.076 61.7251 210.583C52.6757 205.453 41.1816 208.631 36.0521 217.68C30.9227 226.73 34.1003 238.224 43.1497 243.353C81.3602 265.012 130.957 272.84 185.255 255.506C220.455 244.269 241.954 230.455 266.133 210.908C269.495 213.382 273.025 215.471 276.669 217.198C290.459 223.734 304.971 224.696 317.021 223.244C327.348 222 334.711 212.619 333.467 202.292C332.222 191.964 322.842 184.601 312.514 185.846C305.651 186.673 298.653 185.932 292.803 183.159C287.376 180.587 281.767 175.751 277.773 165.917Z" stroke="white" stroke-opacity="0.15" stroke-width="18" stroke-miterlimit="10" stroke-linecap="round"/>
<circle cx="85.4268" cy="108.846" r="56.5582" transform="rotate(-15 85.4268 108.846)" fill="white"/>
<circle cx="183.763" cy="82.4971" r="56.5582" transform="rotate(-15 183.763 82.4971)" fill="white"/>
<circle cx="98.081" cy="95.8331" r="27.3155" transform="rotate(-15 98.081 95.8331)" fill="black"/>
<circle cx="197.493" cy="67.4044" r="27.3155" transform="rotate(-15 197.493 67.4044)" fill="black"/>
</svg>
